Newsreader72pt-BoldItalic.ufo
<glyph name="quotesingle" format="2">
  <advance width="410.52799999999996"/>
  <unicode hex="0027"/>
  <outline>
    <contour>
      <point x="277.576" y="866.848" type="line"/>
      <point x="316.94399999999996" y="866.848" type="line"/>
      <point x="628.632" y="1398.8319999999999" type="line"/>
      <point x="637.688" y="1430.0" type="line"/>
      <point x="321.488" y="1430.0" type="line"/>
      <point x="312.08" y="1398.8319999999999" type="line"/>
    </contour>
  </outline>
</glyph>
<glyph name="parenleft" format="2">
  <advance width="556.44"/>
  <unicode hex="0028"/>
  <outline>
    <contour>
      <point x="802.4000000000001" y="1467.592" type="curve"/>
      <point x="778.8639999999999" y="1490.48" type="line"/>
      <point x="144.25600000000003" y="949.888"/>
      <point x="73.832" y="675.184"/>
      <point x="73.832" y="417.336" type="curve" smooth="yes"/>
      <point x="73.832" y="248.05599999999998"/>
      <point x="129.536" y="75.816"/>
      <point x="253.048" y="-230.32" type="curve"/>
      <point x="286.176" y="-219.376" type="line"/>
      <point x="253.544" y="-65.112"/>
      <point x="240.544" y="60.83200000000001"/>
      <point x="240.544" y="202.008" type="curve" smooth="yes"/>
      <point x="240.544" y="548.176"/>
      <point x="345.008" y="959.36"/>
    </contour>
  </outline>
</glyph>
<glyph name="comma" format="2">
  <advance width="510.376"/>
  <unicode hex="002C"/>
  <outline>
    <contour>
      <point x="-154.48000000000002" y="-304.42400000000004" type="curve"/>
      <point x="-137.832" y="-338.49600000000004" type="line"/>
      <point x="212.46400000000003" y="-152.816"/>
      <point x="343.24" y="30.72"/>
      <point x="343.24" y="189.896" type="curve" smooth="yes"/>
      <point x="343.24" y="285.056"/>
      <point x="282.68800000000005" y="343.552"/>
      <point x="189.712" y="343.552" type="curve" smooth="yes"/>
      <point x="60.831999999999994" y="343.552"/>
      <point x="-14.832" y="246.33599999999998"/>
      <point x="-14.832" y="165.488" type="curve" smooth="yes"/>
      <point x="-14.832" y="135.136"/>
      <point x="100.496" y="84.16"/>
      <point x="100.496" y="-16.351999999999997" type="curve" smooth="yes"/>
      <point x="100.496" y="-96.96000000000001"/>
      <point x="33.496" y="-195.424"/>
    </contour>
  </outline>
</glyph>
<glyph name="slash" format="2">
  <advance width="803.8159999999999"/>
  <unicode hex="002F"/>
  <outline>
    <contour>
      <point x="-79.424" y="0.0" type="line"/>
      <point x="2.0" y="0.0" type="line"/>
      <point x="1009.24" y="1430.0" type="line"/>
      <point x="927.8159999999999" y="1430.0" type="line"/>
    </contour>
  </outline>
</glyph>
<glyph name="zero" format="2">
  <advance width="1329.6"/>
  <unicode hex="0030"/>
  <outline>
    <contour>
      <point x="408.84" y="260.664" type="curve" smooth="yes"/>
      <point x="408.84" y="672.688"/>
      <point x="685.376" y="1390.5040000000001"/>
      <point x="939.096" y="1390.5040000000001" type="curve" smooth="yes"/>
      <point x="1012.68" y="1390.5040000000001"/>
      <point x="1044.408" y="1323.3999999999999"/>
      <point x="1044.408" y="1169.3359999999998" type="curve" smooth="yes"/>
      <point x="1044.408" y="757.312"/>
      <point x="767.8720000000001" y="39.496"/>
      <point x="514.1519999999999" y="39.496" type="curve" smooth="yes"/>
      <point x="440.568" y="39.496"/>
      <point x="408.84" y="106.6"/>
    </contour>
    <contour>
      <point x="943.6320000000001" y="1456.48" type="curve" smooth="yes"/>
      <point x="435.20000000000005" y="1456.48"/>
      <point x="113.296" y="910.384"/>
      <point x="113.296" y="424.464" type="curve" smooth="yes"/>
      <point x="113.296" y="166.92"/>
      <point x="246.11199999999997" y="-26.48"/>
      <point x="509.616" y="-26.48" type="curve" smooth="yes"/>
      <point x="1018.048" y="-26.48"/>
      <point x="1339.952" y="519.616"/>
      <point x="1339.952" y="1005.536" type="curve" smooth="yes"/>
      <point x="1339.952" y="1263.08"/>
      <point x="1207.136" y="1456.48"/>
    </contour>
  </outline>
</glyph>
<glyph name="one" format="2">
  <advance width="1329.6"/>
  <unicode hex="0031"/>
  <outline>
    <contour>
      <point x="429.33599999999996" y="79.072" type="line"/>
      <point x="160.544" y="23.240000000000002" type="line"/>
      <point x="152.83999999999997" y="0.0" type="line"/>
      <point x="1016.296" y="0.0" type="line"/>
      <point x="1025.0" y="23.240000000000002" type="line"/>
      <point x="786.408" y="79.72" type="line"/>
      <point x="1200.28" y="1437.04" type="line"/>
      <point x="1030.016" y="1437.04" type="line"/>
      <point x="358.256" y="1107.784" type="line"/>
      <point x="374.32800000000003" y="1067.104" type="line"/>
      <point x="846.824" y="1192.424" type="line"/>
      <point x="776.104" y="1216.008" type="line"/>
    </contour>
  </outline>
</glyph>
<glyph name="greater" format="2">
  <advance width="1150.0"/>
  <unicode hex="003E"/>
  <outline>
    <contour>
      <point x="994.12" y="545.792" type="line"/>
      <point x="212.616" y="657.672" type="line"/>
      <point x="186.024" y="569.896" type="line"/>
      <point x="939.2719999999999" y="498.44" type="line"/>
      <point x="950.2" y="534.6320000000001" type="line"/>
      <point x="154.568" y="467.0639999999999" type="line"/>
      <point x="125.49600000000001" y="371.256" type="line"/>
      <point x="975.1600000000001" y="481.024" type="line"/>
    </contour>
  </outline>
</glyph>
<glyph name="at" format="2">
  <advance width="1819.032"/>
  <unicode hex="0040"/>
  <outline>
    <contour>
      <point x="1381.1760000000002" y="287.072" type="curve" smooth="yes"/>
      <point x="1324.896" y="287.072"/>
      <point x="1297.4479999999999" y="314.352"/>
      <point x="1297.4479999999999" y="379.024" type="curve" smooth="yes"/>
      <point x="1297.4479999999999" y="415.192"/>
      <point x="1305.152" y="462.712"/>
      <point x="1322.2640000000001" y="523.584" type="curve" smooth="yes"/>
      <point x="1462.9679999999998" y="1039.0" type="line"/>
      <point x="1199.08" y="1039.0" type="line"/>
      <point x="1172.432" y="944.928" type="line"/>
      <point x="1074.56" y="627.9440000000001" type="line" smooth="yes"/>
      <point x="992.1600000000001" y="475.08000000000004"/>
      <point x="924.472" y="423.264"/>
      <point x="869.784" y="423.264" type="curve" smooth="yes"/>
      <point x="832.04" y="423.264"/>
      <point x="818.168" y="443.65599999999995"/>
      <point x="818.168" y="504.4" type="curve" smooth="yes"/>
      <point x="818.168" y="664.48"/>
      <point x="962.712" y="960.6"/>
      <point x="1097.128" y="960.6" type="curve" smooth="yes"/>
      <point x="1155.128" y="960.6"/>
      <point x="1183.112" y="925.176"/>
      <point x="1214.3359999999998" y="843.4" type="curve"/>
      <point x="1228.928" y="867.2320000000001" type="line"/>
      <point x="1189.872" y="1001.984"/>
      <point x="1101.024" y="1060.5919999999999"/>
      <point x="1018.1360000000001" y="1060.5919999999999" type="curve" smooth="yes"/>
      <point x="775.192" y="1060.5919999999999"/>
      <point x="535.448" y="693.648"/>
      <point x="535.448" y="435.944" type="curve" smooth="yes"/>
      <point x="535.448" y="302.632"/>
      <point x="590.928" y="239.11200000000002"/>
      <point x="707.392" y="239.11200000000002" type="curve" smooth="yes"/>
      <point x="820.112" y="239.11200000000002"/>
      <point x="935.816" y="297.152"/>
      <point x="1114.52" y="631.312" type="curve"/>
      <point x="1089.632" y="635.2560000000001" type="line"/>
      <point x="1067.688" y="530.704" type="line" smooth="yes"/>
      <point x="1060.688" y="498.056"/>
      <point x="1056.984" y="467.704"/>
      <point x="1056.984" y="440.704" type="curve" smooth="yes"/>
      <point x="1056.984" y="301.632"/>
      <point x="1148.112" y="239.112"/>
      <point x="1302.5919999999999" y="239.112" type="curve" smooth="yes"/>
      <point x="1653.5814915716655" y="239.112"/>
      <point x="1852.6399999999999" y="536.5600000000001"/>
      <point x="1852.6399999999999" y="880.744" type="curve" smooth="yes"/>
      <point x="1852.6399999999999" y="1229.0159999999998"/>
      <point x="1593.686447761194" y="1457.888"/>
      <point x="1165.048" y="1457.888" type="curve" smooth="yes"/>
      <point x="525.9430848427073" y="1457.888"/>
      <point x="87.63199999999999" y="967.6686511627908"/>
      <point x="87.63199999999999" y="448.368" type="curve" smooth="yes"/>
      <point x="87.63199999999999" y="34.32560000000001"/>
      <point x="392.744" y="-218.0"/>
      <point x="851.2959999999999" y="-218.0" type="curve" smooth="yes"/>
      <point x="1104.9759999999999" y="-218.0"/>
      <point x="1335.96" y="-145.64800000000002"/>
      <point x="1533.0320000000002" y="-24.648" type="curve"/>
      <point x="1514.848" y="12.072000000000001" type="line"/>
      <point x="1284.52" y="-119.056"/>
      <point x="1078.792" y="-157.688"/>
      <point x="887.536" y="-157.688" type="curve" smooth="yes"/>
      <point x="490.256" y="-157.688"/>
      <point x="243.16" y="86.216"/>
      <point x="243.16" y="460.36800000000005" type="curve" smooth="yes"/>
      <point x="243.16" y="965.672"/>
      <point x="592.3163683640304" y="1402.576"/>
      <point x="1148.568" y="1402.576" type="curve" smooth="yes"/>
      <point x="1520.550512908778" y="1402.576"/>
      <point x="1716.704" y="1173.52"/>
      <point x="1716.704" y="866.8720000000001" type="curve" smooth="yes"/>
      <point x="1716.704" y="520.2800000000001"/>
      <point x="1540.8403402010752" y="287.072"/>
    </contour>
  </outline>
</glyph>
<glyph name="D" format="2">
  <advance width="1561.8"/>
  <unicode hex="0044"/>
  <anchor x="1027.096" y="1430.0" name="UCtop"/>
  <anchor x="629.096" y="0.0" name="bottom"/>
  <outline>
    <contour>
      <point x="563.936" y="70.256" type="curve" smooth="yes"/>
      <point x="245.61599999999999" y="70.256" type="line"/>
      <point x="223.784" y="0.0" type="line"/>
      <point x="549.0079999999999" y="0.0" type="line" smooth="yes"/>
      <point x="1174.952" y="0.0"/>
      <point x="1562.296" y="394.136"/>
      <point x="1562.296" y="889.168" type="curve" smooth="yes"/>
      <point x="1562.296" y="1232.04"/>
      <point x="1317.2720000000002" y="1430.0"/>
      <point x="920.24" y="1430.0" type="curve" smooth="yes"/>
      <point x="661.784" y="1430.0" type="line"/>
      <point x="699.568" y="1359.744" type="line"/>
      <point x="913.664" y="1359.744" type="line" smooth="yes"/>
      <point x="1112.336" y="1359.744"/>
      <point x="1224.624" y="1247.6376054421767"/>
      <point x="1224.624" y="1014.8720000000001" type="curve" smooth="yes"/>
      <point x="1224.624" y="476.57583874580064"/>
      <point x="936.4079999999999" y="70.256"/>
    </contour>
    <contour>
      <point x="468.712" y="1358.9840000000002" type="line"/>
      <point x="74.24799999999999" y="73.608" type="line"/>
      <point x="-92.736" y="24.535999999999998" type="line"/>
      <point x="-99.384" y="0.0" type="line"/>
      <point x="419.08" y="0.0" type="line"/>
      <point x="856.024" y="1430.0" type="line"/>
      <point x="329.856" y="1430.0" type="line"/>
      <point x="323.20799999999997" y="1405.4640000000002" type="line"/>
    </contour>
  </outline>
</glyph>
<glyph name="E" format="2">
  <advance width="1397.92"/>
  <unicode hex="0045"/>
  <anchor x="956.656" y="1430.0" name="UCtop"/>
  <anchor x="1084.344" y="0.0" name="right"/>
  <anchor x="588.656" y="0.0" name="bottom"/>
  <outline>
    <contour>
      <point x="468.712" y="1358.9840000000002" type="line"/>
      <point x="74.24799999999999" y="73.608" type="line"/>
      <point x="-92.736" y="24.535999999999998" type="line"/>
      <point x="-99.384" y="0.0" type="line"/>
      <point x="419.08" y="0.0" type="line"/>
      <point x="856.024" y="1430.0" type="line"/>
      <point x="329.856" y="1430.0" type="line"/>
      <point x="323.20799999999997" y="1405.4640000000002" type="line"/>
    </contour>
    <contour>
      <point x="1315.8" y="1386.8719999999998" type="line"/>
      <point x="1415.2" y="1000.544" type="line"/>
      <point x="1452.16" y="1000.544" type="line"/>
      <point x="1518.384" y="1505.384" type="line"/>
      <point x="1499.0720000000001" y="1505.384" type="line"/>
      <point x="1326.152" y="1430.0" type="line"/>
      <point x="653.28" y="1430.0" type="line"/>
      <point x="625.5600000000001" y="1359.744" type="line"/>
      <point x="1443.3919999999998" y="1359.744" type="line"/>
    </contour>
    <contour>
      <point x="1053.128" y="-71.496" type="line"/>
      <point x="1075.6799999999998" y="-71.496" type="line"/>
      <point x="1345.208" y="423.432" type="line"/>
      <point x="1312.248" y="444.264" type="line"/>
      <point x="899.76" y="49.016000000000005" type="line"/>
      <point x="1085.296" y="70.256" type="line"/>
      <point x="245.29600000000002" y="70.256" type="line"/>
      <point x="216.28" y="0.0" type="line"/>
      <point x="918.3520000000001" y="0.0" type="line"/>
    </contour>
    <contour>
      <point x="964.312" y="455.0" type="line"/>
      <point x="1021.312" y="746.0" type="line"/>
      <point x="1143.312" y="1039.0" type="line"/>
      <point x="1110.6480000000001" y="1039.0" type="line"/>
      <point x="932.184" y="796.3119999999999" type="line"/>
      <point x="544.648" y="762.4799999999999" type="line"/>
      <point x="527.928" y="730.5200000000001" type="line"/>
      <point x="908.1120000000001" y="700.6880000000001" type="line"/>
      <point x="931.648" y="455.0" type="line"/>
    </contour>
  </outline>
</glyph>
<glyph name="M" format="2">
  <advance width="2076.512"/>
  <unicode hex="004D"/>
  <anchor x="1253.512" y="1430.0" name="UCtop"/>
  <anchor x="789.592" y="0.0" name="bottom"/>
  <outline>
    <contour>
      <point x="583.32" y="1387.792" type="line"/>
      <point x="523.696" y="1372.712" type="line"/>
      <point x="652.816" y="-7.039999999999999" type="line"/>
      <point x="857.184" y="-7.039999999999999" type="line"/>
      <point x="1765.1680000000001" y="1393.816" type="line"/>
      <point x="1782.592" y="1430.0" type="line"/>
      <point x="1704.488" y="1430.0" type="line"/>
      <point x="917.3199999999999" y="204.96" type="line"/>
      <point x="993.312" y="232.17600000000002" type="line"/>
      <point x="884.4319999999999" y="1430.0" type="line"/>
      <point x="354.71200000000005" y="1430.0" type="line"/>
      <point x="349.064" y="1405.4640000000002" type="line"/>
      <point x="490.752" y="1326.856" type="line"/>
      <point x="52.488" y="69.776" type="line"/>
      <point x="-115.608" y="24.536" type="line"/>
      <point x="-122.552" y="0.0" type="line"/>
      <point x="294.096" y="0.0" type="line"/>
      <point x="300.744" y="24.536" type="line"/>
      <point x="127.98400000000001" y="71.72" type="line"/>
    </contour>
    <contour>
      <point x="1712.9119999999998" y="1430.0" type="line"/>
      <point x="1427.296" y="75.608" type="line"/>
      <point x="1255.312" y="24.535999999999998" type="line"/>
      <point x="1248.664" y="0.0" type="line"/>
      <point x="1919.096" y="0.0" type="line"/>
      <point x="1925.7440000000001" y="24.535999999999998" type="line"/>
      <point x="1786.24" y="73.016" type="line"/>
      <point x="2060.3360000000002" y="1358.632" type="line"/>
      <point x="2247.08" y="1405.4640000000002" type="line"/>
      <point x="2252.728" y="1430.0" type="line"/>
    </contour>
  </outline>
</glyph>
<glyph name="O" format="2">
  <advance width="1575.6960000000001"/>
  <unicode hex="004F"/>
  <anchor x="1088.584" y="1430.0" name="UCtop"/>
  <anchor x="594.664" y="0.0" name="bottom"/>
  <anchor x="754.104" y="0.0" name="right"/>
  <anchor x="1426.0720000000001" y="1430.0" name="horn"/>
  <outline>
    <contour>
      <point x="444.712" y="325.288" type="curve" smooth="yes"/>
      <point x="444.712" y="698.072"/>
      <point x="707.544" y="1385.5040000000001"/>
      <point x="1056.672" y="1385.5040000000001" type="curve" smooth="yes"/>
      <point x="1183.952" y="1385.5040000000001"/>
      <point x="1253.984" y="1297.232"/>
      <point x="1253.984" y="1104.712" type="curve" smooth="yes"/>
      <point x="1253.984" y="731.928"/>
      <point x="991.152" y="44.496"/>
      <point x="642.024" y="44.496" type="curve" smooth="yes"/>
      <point x="514.744" y="44.496"/>
      <point x="444.712" y="132.768"/>
    </contour>
    <contour>
      <point x="1587.616" y="920.608" type="curve" smooth="yes"/>
      <point x="1587.616" y="1239.464"/>
      <point x="1401.648" y="1456.48"/>
      <point x="1038.136" y="1456.48" type="curve" smooth="yes"/>
      <point x="490.74399999999997" y="1456.48"/>
      <point x="111.08" y="957.84"/>
      <point x="111.08" y="509.392" type="curve" smooth="yes"/>
      <point x="111.08" y="190.536"/>
      <point x="297.048" y="-26.48"/>
      <point x="660.56" y="-26.48" type="curve" smooth="yes"/>
      <point x="1207.952" y="-26.48"/>
      <point x="1587.616" y="472.16"/>
    </contour>
  </outline>
</glyph>
<glyph name="Q" format="2">
  <advance width="1575.048"/>
  <unicode hex="0051"/>
  <anchor x="1114.856" y="1430.0" name="UCtop"/>
  <anchor x="437.928" y="-114.136" name="bottom"/>
  <outline>
    <contour>
      <point x="681.336" y="-263.40000000000003" type="line" smooth="yes"/>
      <point x="848.544" y="-423.4"/>
      <point x="987.384" y="-465.0"/>
      <point x="1192.3919999999998" y="-465.0" type="curve" smooth="yes"/>
      <point x="1319.1599999999999" y="-465.0"/>
      <point x="1486.0" y="-424.98400000000004"/>
      <point x="1567.744" y="-400.704" type="curve"/>
      <point x="1581.688" y="-348.744" type="line"/>
      <point x="1406.1280000000002" y="-359.672"/>
      <point x="1259.008" y="-305.95200000000006"/>
      <point x="1114.4479999999999" y="-216.96800000000002" type="curve" smooth="yes"/>
      <point x="732.9839999999999" y="16.735999999999997" type="line"/>
      <point x="730.5759999999999" y="-8.168" type="line"/>
      <point x="1260.848" y="23.136000000000003"/>
      <point x="1587.616" y="511.448"/>
      <point x="1587.616" y="920.608" type="curve" smooth="yes"/>
      <point x="1587.616" y="1239.464"/>
      <point x="1401.648" y="1456.48"/>
      <point x="1038.136" y="1456.48" type="curve" smooth="yes"/>
      <point x="490.744" y="1456.48"/>
      <point x="111.08" y="957.8399999999999"/>
      <point x="111.08" y="509.392" type="curve" smooth="yes"/>
      <point x="111.08" y="319.24"/>
      <point x="183.84" y="182.312"/>
      <point x="301.93600000000004" y="74.536" type="curve" smooth="yes"/>
    </contour>
    <contour>
      <point x="444.712" y="325.28799999999995" type="curve" smooth="yes"/>
      <point x="444.712" y="698.072"/>
      <point x="707.544" y="1385.504"/>
      <point x="1056.672" y="1385.504" type="curve" smooth="yes"/>
      <point x="1183.952" y="1385.504"/>
      <point x="1253.984" y="1297.232"/>
      <point x="1253.984" y="1104.712" type="curve" smooth="yes"/>
      <point x="1253.984" y="731.928"/>
      <point x="991.1519999999999" y="44.496"/>
      <point x="642.024" y="44.496" type="curve" smooth="yes"/>
      <point x="514.744" y="44.496"/>
      <point x="444.712" y="132.76799999999997"/>
    </contour>
  </outline>
</glyph>
<glyph name="S" format="2">
  <advance width="1198.1760000000002"/>
  <unicode hex="0053"/>
  <anchor x="805.864" y="1430.0" name="UCtop"/>
  <anchor x="496.744" y="0.0" name="bottom"/>
  <outline>
    <contour>
      <point x="1102.6879999999999" y="1274.2720000000002" type="curve"/>
      <point x="1058.096" y="1353.3680000000002" type="line"/>
      <point x="1182.752" y="995.7280000000001" type="line"/>
      <point x="1214.768" y="995.7280000000001" type="line"/>
      <point x="1243.904" y="1501.496" type="line"/>
      <point x="1227.904" y="1501.496" type="line"/>
      <point x="1069.616" y="1380.48" type="line"/>
      <point x="1225.512" y="1347.832" type="line"/>
      <point x="1090.648" y="1425.312"/>
      <point x="972.1519999999999" y="1456.48"/>
      <point x="835.392" y="1456.48" type="curve" smooth="yes"/>
      <point x="491.42400000000004" y="1456.48"/>
      <point x="269.544" y="1278.76"/>
      <point x="269.544" y="1002.88" type="curve" smooth="yes"/>
      <point x="269.544" y="806.032"/>
      <point x="379.872" y="724.976"/>
      <point x="514.72" y="653.216" type="curve" smooth="yes"/>
      <point x="649.568" y="581.456"/>
      <point x="808.2" y="526.992"/>
      <point x="808.2" y="341.672" type="curve" smooth="yes"/>
      <point x="808.2" y="158.808"/>
      <point x="666.808" y="40.736"/>
      <point x="408.072" y="40.736" type="curve" smooth="yes"/>
      <point x="313.12" y="40.736"/>
      <point x="236.176" y="61.944"/>
      <point x="155.304" y="105.264" type="curve"/>
      <point x="248.416" y="22.648" type="line"/>
      <point x="71.408" y="444.752" type="line"/>
      <point x="38.224" y="444.752" type="line"/>
      <point x="33.504000000000005" y="34.224" type="line"/>
      <point x="140.40800000000002" y="-4.183999999999999"/>
      <point x="259.11199999999997" y="-26.48"/>
      <point x="425.23199999999997" y="-26.48" type="curve" smooth="yes"/>
      <point x="850.12" y="-26.48"/>
      <point x="1098.2240000000002" y="193.032"/>
      <point x="1098.2240000000002" y="482.232" type="curve" smooth="yes"/>
      <point x="1098.2240000000002" y="718.88"/>
      <point x="951.1120000000001" y="814.488"/>
      <point x="811.56" y="889.136" type="curve" smooth="yes"/>
      <point x="672.008" y="963.784"/>
      <point x="528.016" y="1020.064"/>
      <point x="528.016" y="1166.864" type="curve" smooth="yes"/>
      <point x="528.016" y="1315.3120000000001"/>
      <point x="638.904" y="1391.6879999999999"/>
      <point x="808.9839999999999" y="1391.6879999999999" type="curve" smooth="yes"/>
      <point x="933.616" y="1391.6879999999999"/>
      <point x="1030.4319999999998" y="1351.0159999999998"/>
    </contour>
  </outline>
</glyph>
<glyph name="U" format="2">
  <advance width="1563.64"/>
  <unicode hex="0055"/>
  <anchor x="1142.56" y="1430.0" name="UCtop"/>
  <anchor x="941.936" y="0.0" name="right"/>
  <anchor x="695.12" y="0.0" name="bottom"/>
  <anchor x="1659.216" y="1430.0" name="horn"/>
  <outline>
    <contour>
      <point x="560.992" y="584.208" type="curve" smooth="yes"/>
      <point x="797.5840000000001" y="1356.3919999999998" type="line"/>
      <point x="964.568" y="1405.4640000000002" type="line"/>
      <point x="971.2159999999999" y="1430.0" type="line"/>
      <point x="293.304" y="1430.0" type="line"/>
      <point x="286.656" y="1405.4640000000002" type="line"/>
      <point x="432.15999999999997" y="1358.9840000000002" type="line"/>
      <point x="214.696" y="652.128" type="line" smooth="yes"/>
      <point x="82.768" y="222.88000000000002"/>
      <point x="253.40800000000002" y="-26.48"/>
      <point x="742.416" y="-26.48" type="curve" smooth="yes"/>
      <point x="1076.488" y="-26.48"/>
      <point x="1264.912" y="126.48799999999999"/>
      <point x="1389.096" y="534.576" type="curve" smooth="yes"/>
      <point x="1640.504" y="1361.632" type="line"/>
      <point x="1806.8400000000001" y="1405.4640000000002" type="line"/>
      <point x="1814.136" y="1430.0" type="line"/>
      <point x="1393.544" y="1430.0" type="line"/>
      <point x="1386.896" y="1405.4640000000002" type="line"/>
      <point x="1561.768" y="1359.688" type="line"/>
      <point x="1327.5439999999999" y="590.128" type="line" smooth="yes"/>
      <point x="1234.392" y="285.264"/>
      <point x="1092.496" y="169.81600000000003"/>
      <point x="852.92" y="169.81600000000003" type="curve" smooth="yes"/>
      <point x="577.992" y="169.81600000000003"/>
      <point x="474.56" y="301.68800000000005"/>
    </contour>
  </outline>
</glyph>
<glyph name="W" format="2">
  <advance width="2126.288"/>
  <unicode hex="0057"/>
  <anchor x="1448.48" y="1430.0" name="UCtop"/>
  <anchor x="971.6" y="0.0" name="bottom"/>
  <outline>
    <contour>
      <point x="2166.496" y="1352.8" type="line"/>
      <point x="1536.9920000000002" y="268.176" type="line"/>
      <point x="1592.176" y="268.176" type="line"/>
      <point x="1571.1119999999999" y="1437.04" type="line"/>
      <point x="1356.28" y="1437.04" type="line"/>
      <point x="671.256" y="270.11999999999995" type="line"/>
      <point x="720.4399999999999" y="270.12" type="line"/>
      <point x="717.1519999999999" y="1353.448" type="line"/>
      <point x="887.376" y="1405.464" type="line"/>
      <point x="896.264" y="1430.0" type="line"/>
      <point x="239.112" y="1430.0" type="line"/>
      <point x="231.224" y="1405.464" type="line"/>
      <point x="359.616" y="1349.504" type="line"/>
      <point x="373.92" y="-7.039999999999999" type="line"/>
      <point x="582.288" y="-7.039999999999999" type="line"/>
      <point x="1277.712" y="1149.936" type="line"/>
      <point x="1212.024" y="1131.28" type="line"/>
      <point x="1238.9199999999998" y="-7.039999999999999" type="line"/>
      <point x="1447.288" y="-7.039999999999999" type="line"/>
      <point x="2252.4719999999998" y="1349.8" type="line"/>
      <point x="2413.288" y="1405.464" type="line"/>
      <point x="2421.176" y="1430.0" type="line"/>
      <point x="2018.9199999999998" y="1430.0" type="line"/>
      <point x="2010.6799999999998" y="1405.464" type="line"/>
    </contour>
  </outline>
</glyph>
<glyph name="Y" format="2">
  <advance width="1465.744"/>
  <unicode hex="0059"/>
  <anchor x="1063.92" y="1430.0" name="UCtop"/>
  <anchor x="598.336" y="0.0" name="bottom"/>
  <outline>
    <contour>
      <point x="1478.5839999999998" y="1348.392" type="line"/>
      <point x="892.232" y="662.968" type="line"/>
      <point x="957.112" y="662.968" type="line"/>
      <point x="749.056" y="1348.2640000000001" type="line"/>
      <point x="923.112" y="1405.4640000000002" type="line"/>
      <point x="930.056" y="1430.0" type="line"/>
      <point x="238.816" y="1430.0" type="line"/>
      <point x="233.52" y="1405.4640000000002" type="line"/>
      <point x="381.52000000000004" y="1344.968" type="line"/>
      <point x="613.296" y="668.016" type="line"/>
      <point x="430.648" y="73.608" type="line"/>
      <point x="263.664" y="24.535999999999998" type="line"/>
      <point x="257.016" y="0.0" type="line"/>
      <point x="935.576" y="0.0" type="line"/>
      <point x="941.224" y="24.535999999999998" type="line"/>
      <point x="796.72" y="71.016" type="line"/>
      <point x="978.072" y="661.48" type="line"/>
      <point x="1566.912" y="1347.984" type="line"/>
      <point x="1727.264" y="1405.4640000000002" type="line"/>
      <point x="1733.56" y="1430.0" type="line"/>
      <point x="1329.248" y="1430.0" type="line"/>
      <point x="1322.952" y="1405.4640000000002" type="line"/>
    </contour>
  </outline>
</glyph>
<glyph name="bracketright" format="2">
  <advance width="600.2719999999999"/>
  <unicode hex="005D"/>
  <outline>
    <contour>
      <point x="721.8960000000001" y="1464.0" type="line"/>
      <point x="311.928" y="1464.0" type="line"/>
      <point x="300.984" y="1427.872" type="line"/>
      <point x="508.04" y="1399.984" type="line"/>
      <point x="33.352" y="-152.784" type="line"/>
      <point x="-190.94400000000002" y="-180.672" type="line"/>
      <point x="-201.888" y="-216.8" type="line"/>
      <point x="208.08" y="-216.8" type="line"/>
    </contour>
  </outline>
</glyph>
<glyph name="a" format="2">
  <advance width="1199.352"/>
  <unicode hex="0061"/>
  <anchor x="791.976" y="1024.0" name="top"/>
  <anchor x="1011.1200000000001" y="0.0" name="right"/>
  <anchor x="468.392" y="0.0" name="bottom"/>
  <outline>
    <contour>
      <point x="604.392" y="99.288" type="line" smooth="yes"/>
      <point x="578.968" y="24.608"/>
      <point x="616.9839999999999" y="-26.48"/>
      <point x="701.7760000000001" y="-26.48" type="curve" smooth="yes"/>
      <point x="841.192" y="-26.48"/>
      <point x="1004.888" y="77.96000000000001"/>
      <point x="1169.8319999999999" y="350.86400000000003" type="curve"/>
      <point x="1158.24" y="359.808" type="line"/>
      <point x="1036.3999999999999" y="217.448"/>
      <point x="942.896" y="158.32000000000002"/>
      <point x="863.328" y="145.864" type="curve"/>
      <point x="890.808" y="107.088" type="line"/>
      <point x="1199.976" y="1024.0" type="line"/>
      <point x="901.5440000000001" y="1024.0" type="line"/>
      <point x="860.7120000000001" y="904.2080000000001" type="line"/>
      <point x="712.5600000000001" y="474.512" type="line" smooth="yes"/>
      <point x="558.888" y="216.976"/>
      <point x="467.4" y="171.264"/>
      <point x="407.89599999999996" y="171.264" type="curve" smooth="yes"/>
      <point x="357.02400000000006" y="171.264"/>
      <point x="335.52000000000004" y="193.84"/>
      <point x="335.52000000000004" y="266.176" type="curve" smooth="yes"/>
      <point x="335.52000000000004" y="521.368"/>
      <point x="582.568" y="925.7520000000001"/>
      <point x="763.168" y="925.7520000000001" type="curve" smooth="yes"/>
      <point x="811.744" y="925.7520000000001"/>
      <point x="850.912" y="906.344"/>
      <point x="882.672" y="848.304" type="curve"/>
      <point x="892.968" y="880.136" type="line"/>
      <point x="827.176" y="997.592"/>
      <point x="745.216" y="1049.0720000000001"/>
      <point x="656.904" y="1049.0720000000001" type="curve" smooth="yes"/>
      <point x="340.04" y="1049.0720000000001"/>
      <point x="-9.312" y="552.216"/>
      <point x="-9.312" y="183.256" type="curve" smooth="yes"/>
      <point x="-9.312" y="58.608"/>
      <point x="78.056" y="-26.48"/>
      <point x="208.976" y="-26.48" type="curve" smooth="yes"/>
      <point x="363.392" y="-26.48"/>
      <point x="500.464" y="66.464"/>
      <point x="747.408" y="476.64" type="curve"/>
      <point x="731.872" y="481.176" type="line"/>
    </contour>
  </outline>
</glyph>
<glyph name="b" format="2">
  <advance width="1135.0"/>
  <unicode hex="0062"/>
  <anchor x="858.832" y="1430.0" name="UCtop"/>
  <anchor x="351.496" y="0.0" name="bottom"/>
  <outline>
    <contour>
      <point x="310.976" y="202.856" type="curve" smooth="yes"/>
      <point x="436.048" y="614.648" type="line" smooth="yes"/>
      <point x="483.264" y="719.88"/>
      <point x="604.144" y="860.608"/>
      <point x="708.2320000000001" y="860.608" type="curve" smooth="yes"/>
      <point x="762.088" y="860.608"/>
      <point x="782.832" y="827.048"/>
      <point x="782.832" y="767.7280000000001" type="curve" smooth="yes"/>
      <point x="782.832" y="465.144"/>
      <point x="566.1519999999999" y="24.424"/>
      <point x="388.71999999999997" y="24.424" type="curve" smooth="yes"/>
      <point x="330.384" y="24.424"/>
      <point x="298.92" y="61.296"/>
      <point x="298.92" y="127.52" type="curve" smooth="yes"/>
      <point x="298.92" y="151.28"/>
      <point x="303.272" y="176.744"/>
    </contour>
    <contour>
      <point x="337.176" y="1232.3680000000002" type="curve"/>
      <point x="76.76" y="382.728" type="line" smooth="yes"/>
      <point x="62.408" y="336.672"/>
      <point x="56.056000000000004" y="292.968"/>
      <point x="56.056000000000004" y="253.616" type="curve" smooth="yes"/>
      <point x="56.056000000000004" y="83.088"/>
      <point x="181.008" y="-26.48"/>
      <point x="382.25600000000003" y="-26.48" type="curve" smooth="yes"/>
      <point x="789.384" y="-26.48"/>
      <point x="1135.664" y="429.30400000000003"/>
      <point x="1135.664" y="804.336" type="curve" smooth="yes"/>
      <point x="1135.664" y="955.704"/>
      <point x="1051.5919999999999" y="1050.48"/>
      <point x="902.56" y="1050.48" type="curve" smooth="yes"/>
      <point x="764.472" y="1050.48"/>
      <point x="604.1600000000001" y="940.128"/>
      <point x="438.216" y="683.8159999999999" type="curve"/>
      <point x="449.568" y="679.944" type="line"/>
      <point x="737.7439999999999" y="1490.48" type="line"/>
      <point x="722.432" y="1490.48" type="line"/>
      <point x="191.064" y="1394.6879999999999" type="line"/>
      <point x="186.232" y="1371.192" type="line"/>
      <point x="244.232" y="1318.288"/>
      <point x="299.17600000000004" y="1267.0880000000002"/>
    </contour>
  </outline>
</glyph>
<glyph name="f" format="2">
  <advance width="738.0"/>
  <unicode hex="0066"/>
  <anchor x="871.64" y="1430.0" name="UCtop"/>
  <anchor x="25.928000000000026" y="-438.52" name="bottom"/>
  <outline>
    <contour>
      <point x="118.74399999999999" y="950.616" type="line"/>
      <point x="894.6640000000001" y="950.616" type="line"/>
      <point x="908.5520000000001" y="1024.0" type="line"/>
      <point x="130.984" y="1024.0" type="line"/>
    </contour>
    <contour>
      <point x="479.608" y="293.37600000000003" type="curve" smooth="yes"/>
      <point x="689.1440000000001" y="1107.84" type="line" smooth="yes"/>
      <point x="752.016" y="1353.44"/>
      <point x="838.448" y="1439.816"/>
      <point x="936.264" y="1439.816" type="curve" smooth="yes"/>
      <point x="983.152" y="1439.816"/>
      <point x="1000.3919999999999" y="1412.464"/>
      <point x="980.264" y="1318.376" type="curve" smooth="yes"/>
      <point x="960.136" y="1224.288"/>
      <point x="978.9119999999999" y="1177.328"/>
      <point x="1052.5919999999999" y="1177.328" type="curve" smooth="yes"/>
      <point x="1146.496" y="1177.328"/>
      <point x="1218.752" y="1244.232"/>
      <point x="1218.752" y="1344.0240000000001" type="curve" smooth="yes"/>
      <point x="1218.752" y="1425.928"/>
      <point x="1152.904" y="1490.48"/>
      <point x="994.672" y="1490.48" type="curve" smooth="yes"/>
      <point x="649.608" y="1490.48"/>
      <point x="386.56" y="1254.904"/>
      <point x="316.04" y="933.4" type="curve" smooth="yes"/>
      <point x="103.26400000000001" y="-38.232" type="line" smooth="yes"/>
      <point x="40.832" y="-321.312"/>
      <point x="-43.263999999999996" y="-403.744"/>
      <point x="-130.432" y="-403.744" type="curve" smooth="yes"/>
      <point x="-177.096" y="-403.744"/>
      <point x="-187.096" y="-380.672"/>
      <point x="-163.32000000000002" y="-282.40000000000003" type="curve" smooth="yes"/>
      <point x="-139.54399999999998" y="-184.128"/>
      <point x="-161.08" y="-141.632"/>
      <point x="-247.128" y="-141.632" type="curve" smooth="yes"/>
      <point x="-335.40000000000003" y="-141.632"/>
      <point x="-386.656" y="-206.88799999999998"/>
      <point x="-386.656" y="-285.62399999999997" type="curve" smooth="yes"/>
      <point x="-386.656" y="-390.08"/>
      <point x="-305.79200000000003" y="-465.0"/>
      <point x="-156.12" y="-465.0" type="curve" smooth="yes"/>
      <point x="92.456" y="-465.0"/>
      <point x="338.648" y="-254.61599999999999"/>
    </contour>
  </outline>
</glyph>
<glyph name="i" format="2">
  <advance width="687.792"/>
  <unicode hex="0069"/>
  <anchor x="648.616" y="1430.0" name="top"/>
  <anchor x="190.912" y="0.0" name="bottom"/>
  <anchor x="399.30400000000003" y="0.0" name="right"/>
  <outline>
    <contour>
      <point x="65.648" y="159.392" type="line" smooth="yes"/>
      <point x="16.856" y="25.904000000000003"/>
      <point x="44.744" y="-26.48"/>
      <point x="171.048" y="-26.48" type="curve" smooth="yes"/>
      <point x="310.87199999999996" y="-26.48"/>
      <point x="484.344" y="76.112"/>
      <point x="649.216" y="336.608" type="curve"/>
      <point x="637.6239999999999" y="344.25600000000003" type="line"/>
      <point x="453.064" y="144.384"/>
      <point x="342.44" y="130.696"/>
      <point x="261.856" y="138.904" type="curve"/>
      <point x="353.248" y="88.0" type="line"/>
      <point x="642.328" y="873.68" type="line" smooth="yes"/>
      <point x="684.88" y="990.0400000000001"/>
      <point x="664.936" y="1041.4080000000001"/>
      <point x="535.336" y="1041.4080000000001" type="curve" smooth="yes"/>
      <point x="386.216" y="1041.4080000000001"/>
      <point x="221.68800000000002" y="940.76"/>
      <point x="45.152" y="686.096" type="curve"/>
      <point x="58.040000000000006" y="676.504" type="line"/>
      <point x="224.08" y="845.36"/>
      <point x="291.216" y="871.4"/>
      <point x="400.94399999999996" y="856.1039999999999" type="curve"/>
      <point x="352.136" y="936.0" type="line"/>
    </contour>
    <contour>
      <point x="455.296" y="1306.656" type="curve" smooth="yes"/>
      <point x="455.296" y="1222.512"/>
      <point x="515.608" y="1154.9759999999999"/>
      <point x="612.4" y="1154.9759999999999" type="curve" smooth="yes"/>
      <point x="723.096" y="1154.9759999999999"/>
      <point x="797.256" y="1236.12"/>
      <point x="797.256" y="1329.336" type="curve" smooth="yes"/>
      <point x="797.256" y="1412.7759999999998"/>
      <point x="738.0" y="1478.4959999999999"/>
      <point x="641.5600000000001" y="1478.4959999999999" type="curve" smooth="yes"/>
      <point x="530.512" y="1478.4959999999999"/>
      <point x="455.296" y="1399.168"/>
    </contour>
  </outline>
</glyph>
<glyph name="m" format="2">
  <advance width="1810.384"/>
  <unicode hex="006D"/>
  <anchor x="1077.608" y="1024.0" name="top"/>
  <anchor x="760.088" y="0.0" name="bottom"/>
  <outline>
    <contour>
      <point x="1464.136" y="88.64800000000001" type="line"/>
      <point x="1688.4560000000001" y="640.216" type="line" smooth="yes"/>
      <point x="1743.64" y="775.528"/>
      <point x="1752.992" y="827.192"/>
      <point x="1752.992" y="878.024" type="curve" smooth="yes"/>
      <point x="1752.992" y="972.8720000000001"/>
      <point x="1693.088" y="1050.48"/>
      <point x="1550.704" y="1050.48" type="curve" smooth="yes"/>
      <point x="1376.0639999999999" y="1050.48"/>
      <point x="1261.024" y="948.9599999999999"/>
      <point x="1037.992" y="510.392" type="curve"/>
      <point x="1058.232" y="510.392" type="line"/>
      <point x="1115.032" y="682.456" type="line" smooth="yes"/>
      <point x="1149.7120000000002" y="790.032"/>
      <point x="1158.952" y="837.88"/>
      <point x="1158.952" y="882.728" type="curve" smooth="yes"/>
      <point x="1158.952" y="980.0400000000001"/>
      <point x="1103.0079999999998" y="1050.48"/>
      <point x="977.976" y="1050.48" type="curve" smooth="yes"/>
      <point x="823.352" y="1050.48"/>
      <point x="711.5920000000001" y="966.072"/>
      <point x="514.0" y="568.848" type="curve"/>
      <point x="522.056" y="568.848" type="line"/>
      <point x="666.144" y="1022.944" type="line"/>
      <point x="599.28" y="1040.24"/>
      <point x="561.8" y="1046.592"/>
      <point x="486.232" y="1046.592" type="curve" smooth="yes"/>
      <point x="299.28000000000003" y="1046.592"/>
      <point x="182.56" y="945.832"/>
      <point x="45.856" y="607.52" type="curve"/>
      <point x="57.504000000000005" y="601.872" type="line"/>
      <point x="173.416" y="819.192"/>
      <point x="243.976" y="855.808"/>
      <point x="290.86400000000003" y="855.808" type="curve" smooth="yes"/>
      <point x="317.752" y="855.808"/>
      <point x="321.4" y="831.8639999999999"/>
      <point x="310.16" y="799.144" type="curve"/>
      <point x="40.248" y="0.0" type="line"/>
      <point x="349.048" y="0.0" type="line"/>
      <point x="525.4" y="520.28" type="line" smooth="yes"/>
      <point x="583.7520000000001" y="669.712"/>
      <point x="705.784" y="827.1840000000001"/>
      <point x="795.328" y="827.1840000000001" type="curve" smooth="yes"/>
      <point x="827.5360000000001" y="827.1840000000001"/>
      <point x="844.52" y="814.776"/>
      <point x="844.52" y="787.328" type="curve" smooth="yes"/>
      <point x="844.52" y="764.3839999999999"/>
      <point x="836.224" y="734.0880000000001"/>
      <point x="798.6" y="627.104" type="curve" smooth="yes"/>
      <point x="578.312" y="0.0" type="line"/>
      <point x="895.5360000000001" y="0.0" type="line"/>
      <point x="1078.592" y="520.632" type="line"/>
      <point x="1133.368" y="656.2800000000001"/>
      <point x="1252.6960000000001" y="827.184"/>
      <point x="1356.392" y="827.184" type="curve" smooth="yes"/>
      <point x="1395.768" y="827.184"/>
      <point x="1416.992" y="810.312"/>
      <point x="1416.992" y="777.384" type="curve" smooth="yes"/>
      <point x="1416.992" y="749.496"/>
      <point x="1406.288" y="717.552"/>
      <point x="1358.92" y="603.8720000000001" type="curve" smooth="yes"/>
      <point x="1158.576" y="122.456" type="line" smooth="yes"/>
      <point x="1121.04" y="31.735999999999997"/>
      <point x="1164.112" y="-26.48"/>
      <point x="1285.104" y="-26.48" type="curve" smooth="yes"/>
      <point x="1426.28" y="-26.48"/>
      <point x="1594.144" y="74.40799999999999"/>
      <point x="1778.5120000000002" y="334.01599999999996" type="curve"/>
      <point x="1767.568" y="343.608" type="line"/>
      <point x="1575.96" y="153.776"/>
      <point x="1462.904" y="134.10399999999998"/>
      <point x="1376.6879999999999" y="142.92" type="curve"/>
    </contour>
  </outline>
</glyph>
<glyph name="q" format="2">
  <advance width="1185.0639999999999"/>
  <unicode hex="0071"/>
  <anchor x="785.544" y="1024.0" name="top"/>
  <anchor x="620.0799999999999" y="-438.52" name="bottom"/>
  <outline>
    <contour>
      <point x="473.39200000000005" y="-376.336" type="line"/>
      <point x="338.68" y="-408.28" type="line"/>
      <point x="329.08799999999997" y="-438.52" type="line"/>
      <point x="887.512" y="-438.52" type="line"/>
      <point x="896.4559999999999" y="-408.928" type="line"/>
      <point x="795.152" y="-375.04" type="line"/>
      <point x="1215.912" y="1024.0" type="line"/>
      <point x="918.0" y="1024.0" type="line"/>
      <point x="870.8" y="893.656" type="line"/>
      <point x="715.096" y="481.64" type="line" smooth="yes"/>
      <point x="568.552" y="243.54399999999998"/>
      <point x="471.232" y="171.264"/>
      <point x="407.19199999999995" y="171.264" type="curve" smooth="yes"/>
      <point x="357.02400000000006" y="171.264"/>
      <point x="334.81600000000003" y="193.488"/>
      <point x="334.81600000000003" y="266.176" type="curve" smooth="yes"/>
      <point x="334.81600000000003" y="486.904"/>
      <point x="569.064" y="925.7520000000001"/>
      <point x="762.4639999999999" y="925.7520000000001" type="curve" smooth="yes"/>
      <point x="825.872" y="925.7520000000001"/>
      <point x="872.6320000000001" y="892.5120000000001"/>
      <point x="911.28" y="783.384" type="curve"/>
      <point x="916.984" y="832.288" type="line"/>
      <point x="846.656" y="984.3520000000001"/>
      <point x="756.456" y="1049.0720000000001"/>
      <point x="656.904" y="1049.0720000000001" type="curve" smooth="yes"/>
      <point x="333.0" y="1049.0720000000001"/>
      <point x="-10.016" y="542.36"/>
      <point x="-10.016" y="183.256" type="curve" smooth="yes"/>
      <point x="-10.016" y="58.608"/>
      <point x="77.35199999999999" y="-26.48"/>
      <point x="208.272" y="-26.48" type="curve" smooth="yes"/>
      <point x="342.8" y="-26.48"/>
      <point x="486.464" y="40.224000000000004"/>
      <point x="746.704" y="476.64" type="curve"/>
      <point x="730.52" y="476.64" type="line"/>
    </contour>
  </outline>
</glyph>
<glyph name="r" format="2">
  <advance width="1006.704"/>
  <unicode hex="0072"/>
  <anchor x="679.024" y="1024.0" name="top"/>
  <anchor x="199.048" y="0.0" name="bottom"/>
  <outline>
    <contour>
      <point x="310.16" y="799.144" type="curve"/>
      <point x="40.248" y="0.0" type="line"/>
      <point x="349.048" y="0.0" type="line"/>
      <point x="461.68" y="331.304" type="line" smooth="yes"/>
      <point x="575.752" y="664.6880000000001"/>
      <point x="714.0559999999999" y="842.0160000000001"/>
      <point x="810.464" y="842.0160000000001" type="curve" smooth="yes"/>
      <point x="837.888" y="842.0160000000001"/>
      <point x="848.1279999999999" y="828.7760000000001"/>
      <point x="847.312" y="775.2959999999999" type="curve" smooth="yes"/>
      <point x="846.496" y="721.8159999999999"/>
      <point x="868.088" y="695.928"/>
      <point x="926.272" y="695.928" type="curve" smooth="yes"/>
      <point x="1030.376" y="695.928"/>
      <point x="1117.8159999999998" y="786.384"/>
      <point x="1117.8159999999998" y="908.136" type="curve" smooth="yes"/>
      <point x="1117.8159999999998" y="998.648"/>
      <point x="1068.152" y="1050.48"/>
      <point x="970.544" y="1050.48" type="curve" smooth="yes"/>
      <point x="835.8639999999999" y="1050.48"/>
      <point x="698.2959999999999" y="946.392"/>
      <point x="499.648" y="514.4" type="curve"/>
      <point x="496.872" y="479.408" type="line"/>
      <point x="666.144" y="1022.944" type="line"/>
      <point x="599.2800000000001" y="1040.24"/>
      <point x="561.8000000000001" y="1046.592"/>
      <point x="486.232" y="1046.592" type="curve" smooth="yes"/>
      <point x="299.28000000000003" y="1046.592"/>
      <point x="182.56" y="945.832"/>
      <point x="45.856" y="607.52" type="curve"/>
      <point x="57.504000000000005" y="601.872" type="line"/>
      <point x="173.416" y="819.192"/>
      <point x="243.976" y="855.808"/>
      <point x="290.86400000000003" y="855.808" type="curve" smooth="yes"/>
      <point x="317.752" y="855.808"/>
      <point x="321.4" y="831.8639999999999"/>
    </contour>
  </outline>
</glyph>
<glyph name="t" format="2">
  <advance width="762.136"/>
  <unicode hex="0074"/>
  <anchor x="256.728" y="0.0" name="bottom"/>
  <anchor x="819.1279999999999" y="1535.0" name="right"/>
  <outline>
    <contour>
      <point x="127.856" y="957.096" type="line"/>
      <point x="881.184" y="957.096" type="line"/>
      <point x="896.128" y="1024.0" type="line"/>
      <point x="144.504" y="1024.0" type="line"/>
    </contour>
    <contour>
      <point x="456.4" y="396.648" type="curve" smooth="yes"/>
      <point x="776.736" y="1316.008" type="line"/>
      <point x="456.512" y="1316.008" type="line"/>
      <point x="133.512" y="389.65600000000006" type="line" smooth="yes"/>
      <point x="83.312" y="248.368"/>
      <point x="76.128" y="177.32"/>
      <point x="76.128" y="138.36" type="curve" smooth="yes"/>
      <point x="76.128" y="15.24"/>
      <point x="152.232" y="-26.48"/>
      <point x="237.79999999999998" y="-26.48" type="curve" smooth="yes"/>
      <point x="354.016" y="-26.48"/>
      <point x="505.824" y="16.631999999999998"/>
      <point x="728.5600000000001" y="361.512" type="curve"/>
      <point x="715.024" y="372.40000000000003" type="line"/>
      <point x="576.576" y="212.856"/>
      <point x="510.312" y="184.392"/>
      <point x="459.42400000000004" y="184.392" type="curve" smooth="yes"/>
      <point x="429.128" y="184.392"/>
      <point x="411.832" y="195.688"/>
      <point x="411.832" y="224.576" type="curve" smooth="yes"/>
      <point x="411.832" y="250.59199999999998"/>
      <point x="418.072" y="290.384"/>
    </contour>
  </outline>
</glyph>
<glyph name="u" format="2">
  <advance width="1209.912"/>
  <unicode hex="0075"/>
  <anchor x="776.96" y="1024.0" name="top"/>
  <anchor x="951.2879999999999" y="0.0" name="right"/>
  <anchor x="460.56" y="0.0" name="bottom"/>
  <anchor x="1086.408" y="1024.0" name="horn"/>
  <outline>
    <contour>
      <point x="631.376" y="106.416" type="line" smooth="yes"/>
      <point x="606.952" y="19.424"/>
      <point x="643.32" y="-26.48"/>
      <point x="715.8" y="-26.48" type="curve" smooth="yes"/>
      <point x="855.216" y="-26.48"/>
      <point x="1018.9119999999999" y="77.96000000000001"/>
      <point x="1183.856" y="350.86400000000003" type="curve"/>
      <point x="1174.208" y="358.512" type="line"/>
      <point x="1003.7679999999999" y="160.424"/>
      <point x="887.584" y="140.176"/>
      <point x="802.832" y="143.92" type="curve"/>
      <point x="897.296" y="86.352" type="line"/>
      <point x="1213.6480000000001" y="1024.0" type="line"/>
      <point x="904.1999999999999" y="1024.0" type="line"/>
      <point x="713.976" y="448.608" type="line" smooth="yes"/>
      <point x="650.3520000000001" y="295.024"/>
      <point x="561.0559999999999" y="193.576"/>
      <point x="485.528" y="193.576" type="curve" smooth="yes"/>
      <point x="441.37600000000003" y="193.576"/>
      <point x="413.56" y="211.22400000000002"/>
      <point x="413.56" y="254.68800000000002" type="curve" smooth="yes"/>
      <point x="413.56" y="278.984"/>
      <point x="423.504" y="312.928"/>
      <point x="448.57599999999996" y="377.552" type="curve" smooth="yes"/>
      <point x="636.184" y="864.608" type="line" smooth="yes"/>
      <point x="685.032" y="991.616"/>
      <point x="641.664" y="1041.4080000000001"/>
      <point x="519.6" y="1041.4080000000001" type="curve" smooth="yes"/>
      <point x="374.072" y="1041.4080000000001"/>
      <point x="208.432" y="941.3520000000001"/>
      <point x="46.744" y="686.928" type="curve"/>
      <point x="58.984" y="677.336" type="line"/>
      <point x="210.936" y="848.6959999999999"/>
      <point x="284.70399999999995" y="870.568"/>
      <point x="404.296" y="856.992" type="curve"/>
      <point x="345.952" y="936.0" type="line"/>
      <point x="116.816" y="304.544" type="line" smooth="yes"/>
      <point x="100.168" y="258.30400000000003"/>
      <point x="90.816" y="200.04800000000003"/>
      <point x="90.816" y="155.21599999999998" type="curve" smooth="yes"/>
      <point x="90.816" y="50.832"/>
      <point x="134.168" y="-26.48"/>
      <point x="286.91999999999996" y="-26.48" type="curve" smooth="yes"/>
      <point x="435.952" y="-26.48"/>
      <point x="572.352" y="92.03200000000001"/>
      <point x="740.2080000000001" y="445.0" type="curve"/>
      <point x="732.504" y="460.55199999999996" type="line"/>
    </contour>
  </outline>
</glyph>
<glyph name="asciitilde" format="2">
  <advance width="1150.0"/>
  <unicode hex="007E"/>
  <outline>
    <contour>
      <point x="707.608" y="546.336" type="curve"/>
      <point x="666.096" y="546.336" type="line"/>
      <point x="659.0160000000001" y="519.776"/>
      <point x="649.2719999999999" y="512.9200000000001"/>
      <point x="635.04" y="512.9200000000001" type="curve" smooth="yes"/>
      <point x="597.952" y="512.9200000000001"/>
      <point x="572.48" y="548.704"/>
      <point x="517.216" y="548.704" type="curve" smooth="yes"/>
      <point x="487.65599999999995" y="548.704"/>
      <point x="457.74399999999997" y="533.312"/>
      <point x="442.39199999999994" y="477.66399999999993" type="curve"/>
      <point x="483.90400000000005" y="477.66399999999993" type="line"/>
      <point x="490.984" y="504.224"/>
      <point x="500.728" y="511.08"/>
      <point x="514.9599999999999" y="511.08" type="curve" smooth="yes"/>
      <point x="552.048" y="511.08"/>
      <point x="577.52" y="475.29599999999994"/>
      <point x="632.784" y="475.29599999999994" type="curve" smooth="yes"/>
      <point x="662.344" y="475.29599999999994"/>
      <point x="692.256" y="490.68800000000005"/>
    </contour>
  </outline>
</glyph>
<glyph name="exclamdown" format="2">
  <advance width="562.128"/>
  <unicode hex="00A1"/>
  <outline>
    <contour>
      <point x="-156.42399999999998" y="-256.496" type="line" smooth="yes"/>
      <point x="-181.664" y="-368.968"/>
      <point x="-90.208" y="-431.184"/>
      <point x="13.136000000000003" y="-431.184" type="curve" smooth="yes"/>
      <point x="127.792" y="-431.184"/>
      <point x="225.84" y="-367.67199999999997"/>
      <point x="251.07999999999998" y="-256.496" type="curve" smooth="yes"/>
      <point x="256.488" y="-234.38400000000001" type="line" smooth="yes"/>
      <point x="275.376" y="-150.74399999999997"/>
      <point x="231.424" y="64.56"/>
      <point x="296.86400000000003" y="503.976" type="curve"/>
      <point x="258.736" y="503.976" type="line"/>
      <point x="61.03200000000001" y="79.344"/>
      <point x="-121.072" y="-103.20799999999997"/>
      <point x="-151.01600000000002" y="-234.38400000000001" type="curve" smooth="yes"/>
    </contour>
    <contour>
      <point x="351.20000000000005" y="677.52" type="curve" smooth="yes"/>
      <point x="478.192" y="677.52"/>
      <point x="574.4639999999999" y="775.4399999999999"/>
      <point x="574.4639999999999" y="902.432" type="curve" smooth="yes"/>
      <point x="574.4639999999999" y="988.576"/>
      <point x="515.8000000000001" y="1047.5359999999998"/>
      <point x="423.712" y="1047.5359999999998" type="curve" smooth="yes"/>
      <point x="296.71999999999997" y="1047.5359999999998"/>
      <point x="200.448" y="949.616"/>
      <point x="200.448" y="822.976" type="curve" smooth="yes"/>
      <point x="200.448" y="736.48"/>
      <point x="259.11199999999997" y="677.52"/>
    </contour>
  </outline>
</glyph>
<glyph name="currency" format="2">
  <advance width="903.672"/>
  <unicode hex="00A4"/>
  <outline>
    <contour>
      <point x="194.616" y="816.168" type="line"/>
      <point x="272.432" y="697.592" type="line"/>
      <point x="346.22400000000005" y="750.256" type="line"/>
      <point x="265.40799999999996" y="867.48" type="line"/>
    </contour>
    <contour>
      <point x="824.504" y="845.5360000000001" type="line"/>
      <point x="671.52" y="728.312" type="line"/>
      <point x="715.592" y="664.352" type="line"/>
      <point x="869.576" y="779.576" type="line"/>
    </contour>
    <contour>
      <point x="708.0559999999999" y="207.832" type="line"/>
      <point x="630.24" y="326.408" type="line"/>
      <point x="556.448" y="273.744" type="line"/>
      <point x="637.264" y="156.51999999999998" type="line"/>
    </contour>
    <contour>
      <point x="33.096000000000004" y="244.424" type="line"/>
      <point x="78.168" y="178.464" type="line"/>
      <point x="231.15200000000002" y="295.68800000000005" type="line"/>
      <point x="187.07999999999998" y="359.648" type="line"/>
    </contour>
    <contour>
      <point x="519.816" y="815.128" type="curve" smooth="yes"/>
      <point x="308.616" y="815.128"/>
      <point x="137.208" y="649.744"/>
      <point x="137.208" y="445.112" type="curve" smooth="yes"/>
      <point x="137.208" y="307.168"/>
      <point x="228.68800000000002" y="208.872"/>
      <point x="383.208" y="208.872" type="curve" smooth="yes"/>
      <point x="594.408" y="208.872"/>
      <point x="765.816" y="374.25600000000003"/>
      <point x="765.816" y="578.888" type="curve" smooth="yes"/>
      <point x="765.816" y="716.832"/>
      <point x="674.336" y="815.128"/>
    </contour>
    <contour>
      <point x="397.52000000000004" y="289.01599999999996" type="curve" smooth="yes"/>
      <point x="289.64799999999997" y="289.01599999999996"/>
      <point x="225.704" y="359.128"/>
      <point x="225.704" y="462.0" type="curve" smooth="yes"/>
      <point x="225.704" y="614.56"/>
      <point x="341.576" y="734.984"/>
      <point x="505.50399999999996" y="734.984" type="curve" smooth="yes"/>
      <point x="613.376" y="734.984"/>
      <point x="677.3199999999999" y="664.8720000000001"/>
      <point x="677.3199999999999" y="562.0" type="curve" smooth="yes"/>
      <point x="677.3199999999999" y="409.44"/>
      <point x="561.448" y="289.01599999999996"/>
    </contour>
  </outline>
</glyph>
<glyph name="guillemotleft" format="2">
  <advance width="901.16"/>
  <unicode hex="00AB"/>
  <outline>
    <contour>
      <point x="272.784" y="589.184" type="line"/>
      <point x="220.216" y="393.82399999999996" type="line"/>
      <point x="605.608" y="954.848" type="line"/>
      <point x="590.664" y="969.7919999999999" type="line"/>
      <point x="48.856" y="530.944" type="line"/>
      <point x="43.208000000000006" y="513.056" type="line"/>
      <point x="316.64799999999997" y="74.208" type="line"/>
      <point x="337.888" y="80.912" type="line"/>
    </contour>
    <contour>
      <point x="635.1840000000001" y="589.184" type="line"/>
      <point x="582.6160000000001" y="393.82399999999996" type="line"/>
      <point x="968.008" y="954.848" type="line"/>
      <point x="953.064" y="969.7919999999999" type="line"/>
      <point x="411.256" y="530.944" type="line"/>
      <point x="405.608" y="513.056" type="line"/>
      <point x="679.048" y="74.208" type="line"/>
      <point x="700.288" y="80.912" type="line"/>
    </contour>
  </outline>
</glyph>
<glyph name="questiondown" format="2">
  <advance width="1039.536"/>
  <unicode hex="00BF"/>
  <outline>
    <contour>
      <point x="667.792" y="675.8720000000001" type="curve" smooth="yes"/>
      <point x="794.784" y="675.8720000000001"/>
      <point x="891.056" y="773.792"/>
      <point x="891.056" y="900.784" type="curve" smooth="yes"/>
      <point x="891.056" y="986.928"/>
      <point x="832.3919999999999" y="1045.8880000000001"/>
      <point x="740.3040000000001" y="1045.8880000000001" type="curve" smooth="yes"/>
      <point x="613.312" y="1045.8880000000001"/>
      <point x="517.0400000000001" y="947.9680000000001"/>
      <point x="517.0400000000001" y="821.328" type="curve" smooth="yes"/>
      <point x="517.0400000000001" y="734.832"/>
      <point x="575.704" y="675.8720000000001"/>
    </contour>
    <contour>
      <point x="452.50399999999996" y="-432.832" type="curve" smooth="yes"/>
      <point x="674.6959999999999" y="-432.832"/>
      <point x="759.2719999999999" y="-356.152"/>
      <point x="759.2719999999999" y="-264.06399999999996" type="curve" smooth="yes"/>
      <point x="759.2719999999999" y="-201.032"/>
      <point x="718.9599999999999" y="-152.94400000000002"/>
      <point x="659.04" y="-152.94400000000002" type="curve" smooth="yes"/>
      <point x="628.728" y="-152.94400000000002"/>
      <point x="467.66400000000004" y="-330.688"/>
      <point x="293.96000000000004" y="-330.688" type="curve" smooth="yes"/>
      <point x="173.48800000000003" y="-330.688"/>
      <point x="97.392" y="-258.312"/>
      <point x="97.392" y="-141.8" type="curve" smooth="yes"/>
      <point x="97.392" y="34.84"/>
      <point x="210.696" y="121.06400000000002"/>
      <point x="558.528" y="88.632" type="curve"/>
      <point x="639.456" y="502.32800000000003" type="line"/>
      <point x="599.032" y="502.32800000000003" type="line"/>
      <point x="457.624" y="172.992" type="line"/>
      <point x="565.84" y="345.072" type="line"/>
      <point x="141.536" y="386.928"/>
      <point x="-18.064" y="241.32"/>
      <point x="-18.064" y="-21.96" type="curve" smooth="yes"/>
      <point x="-18.064" y="-234.144"/>
      <point x="141.864" y="-432.832"/>
    </contour>
  </outline>
</glyph>
<glyph name="Ccedilla" format="2">
  <advance width="1412.5120000000002"/>
  <unicode hex="00C7"/>
  <outline>
    <contour>
      <point x="1056.376" y="119.376" type="line"/>
      <point x="972.144" y="66.55199999999999"/>
      <point x="874.728" y="43.976"/>
      <point x="778.2239999999999" y="43.976" type="curve" smooth="yes"/>
      <point x="582.44" y="43.976"/>
      <point x="456.54400000000004" y="188.84799999999998"/>
      <point x="456.54400000000004" y="481.024" type="curve" smooth="yes"/>
      <point x="456.54400000000004" y="926.168"/>
      <point x="701.9279999999999" y="1387.152"/>
      <point x="1103.992" y="1387.152" type="curve" smooth="yes"/>
      <point x="1207.032" y="1387.152"/>
      <point x="1291.144" y="1357.208"/>
      <point x="1367.904" y="1239.584" type="curve"/>
      <point x="1311.888" y="1349.04" type="line"/>
      <point x="1426.456" y="952.528" type="line"/>
      <point x="1461.176" y="952.528" type="line"/>
      <point x="1509.064" y="1500.848" type="line"/>
      <point x="1494.768" y="1500.848" type="line"/>
      <point x="1312.1119999999999" y="1396.056" type="line"/>
      <point x="1475.096" y="1407.464" type="line"/>
      <point x="1360.5439999999999" y="1440.592"/>
      <point x="1248.4560000000001" y="1456.48"/>
      <point x="1124.96" y="1456.48" type="curve" smooth="yes"/>
      <point x="516.96" y="1456.48"/>
      <point x="114.72800000000001" y="1013.96"/>
      <point x="114.72800000000001" y="510.74399999999997" type="curve" smooth="yes"/>
      <point x="114.72800000000001" y="194.72000000000003"/>
      <point x="314.936" y="-26.48"/>
      <point x="762.448" y="-26.48" type="curve" smooth="yes"/>
      <point x="895.208" y="-26.48"/>
      <point x="1008.12" y="-11.832"/>
      <point x="1148.752" y="22.336" type="curve"/>
      <point x="1335.952" y="397.288" type="line"/>
      <point x="1303.528" y="397.288" type="line"/>
      <point x="969.208" y="60.983999999999995" type="line"/>
    </contour>
    <contour>
      <point x="571.2080000000001" y="-414.33599999999996" type="curve" smooth="yes"/>
      <point x="496.56" y="-414.33599999999996"/>
      <point x="461.192" y="-324.672"/>
      <point x="446.192" y="-324.672" type="curve" smooth="yes"/>
      <point x="410.656" y="-324.672"/>
      <point x="385.47200000000004" y="-347.968"/>
      <point x="385.47200000000004" y="-387.74399999999997" type="curve" smooth="yes"/>
      <point x="385.47200000000004" y="-428.224"/>
      <point x="418.952" y="-465.0"/>
      <point x="516.024" y="-465.0" type="curve"/>
      <point x="687.5360000000001" y="-465.0"/>
      <point x="800.72" y="-357.74399999999997"/>
      <point x="800.72" y="-250.56000000000003" type="curve" smooth="yes"/>
      <point x="800.72" y="-184.56"/>
      <point x="759.888" y="-131.912"/>
      <point x="610.56" y="-82.728" type="curve"/>
      <point x="567.528" y="-180.49599999999998" type="line"/>
      <point x="767.1120000000001" y="37.032" type="line"/>
      <point x="707.3199999999999" y="37.032" type="line"/>
      <point x="482.03200000000004" y="-212.73600000000002" type="line"/>
      <point x="482.03200000000004" y="-217.38400000000001" type="line"/>
      <point x="634.064" y="-253.736"/>
      <point x="669.416" y="-293.552"/>
      <point x="669.416" y="-336.072" type="curve" smooth="yes"/>
      <point x="669.416" y="-382.464"/>
      <point x="631.376" y="-414.33599999999996"/>
    </contour>
  </outline>
</glyph>
<glyph name="Oslash" format="2">
  <advance width="1593.328"/>
  <unicode hex="00D8"/>
  <anchor x="1097.4" y="1430.0" name="UCtop"/>
  <anchor x="603.48" y="0.0" name="bottom"/>
  <outline>
    <contour>
      <point x="1791.952" y="1430.0" type="line"/>
      <point x="1674.048" y="1430.0" type="line"/>
      <point x="1420.76" y="1224.376" type="line"/>
      <point x="1320.064" y="1170.08" type="line"/>
      <point x="352.08" y="319.69599999999997" type="line"/>
      <point x="248.328" y="262.696" type="line"/>
      <point x="-75.27199999999999" y="0.0" type="line"/>
      <point x="42.632000000000005" y="0.0" type="line"/>
      <point x="295.92" y="205.62400000000002" type="line"/>
      <point x="396.61600000000004" y="259.92" type="line"/>
      <point x="1364.6" y="1110.304" type="line"/>
      <point x="1468.3519999999999" y="1167.304" type="line"/>
    </contour>
    <contour>
      <point x="453.528" y="325.288" type="curve" smooth="yes"/>
      <point x="453.528" y="698.072"/>
      <point x="716.36" y="1385.5040000000001"/>
      <point x="1065.488" y="1385.5040000000001" type="curve" smooth="yes"/>
      <point x="1192.768" y="1385.5040000000001"/>
      <point x="1262.8" y="1297.232"/>
      <point x="1262.8" y="1104.712" type="curve" smooth="yes"/>
      <point x="1262.8" y="731.928"/>
      <point x="999.968" y="44.496"/>
      <point x="650.84" y="44.496" type="curve" smooth="yes"/>
      <point x="523.5600000000001" y="44.496"/>
      <point x="453.528" y="132.768"/>
    </contour>
    <contour>
      <point x="1596.432" y="920.608" type="curve" smooth="yes"/>
      <point x="1596.432" y="1239.464"/>
      <point x="1410.464" y="1456.48"/>
      <point x="1046.952" y="1456.48" type="curve" smooth="yes"/>
      <point x="499.56" y="1456.48"/>
      <point x="119.896" y="957.84"/>
      <point x="119.896" y="509.392" type="curve" smooth="yes"/>
      <point x="119.896" y="190.536"/>
      <point x="305.864" y="-26.48"/>
      <point x="669.3760000000001" y="-26.48" type="curve" smooth="yes"/>
      <point x="1216.768" y="-26.48"/>
      <point x="1596.432" y="472.16"/>
    </contour>
  </outline>
</glyph>
<glyph name="Thorn" format="2">
  <advance width="1383.2479999999998"/>
  <unicode hex="00DE"/>
  <outline>
    <contour>
      <point x="665.096" y="397.944" type="curve" smooth="yes"/>
      <point x="341.672" y="397.944" type="line"/>
      <point x="328.504" y="327.688" type="line"/>
      <point x="751.4" y="327.688" type="line" smooth="yes"/>
      <point x="1165.744" y="327.688"/>
      <point x="1394.448" y="528.576"/>
      <point x="1394.448" y="801.704" type="curve" smooth="yes"/>
      <point x="1394.448" y="980.832"/>
      <point x="1270.5040000000001" y="1132.0720000000001"/>
      <point x="920.952" y="1132.0720000000001" type="curve" smooth="yes"/>
      <point x="576.928" y="1132.0720000000001" type="line"/>
      <point x="537.544" y="1061.816" type="line"/>
      <point x="796.576" y="1061.816" type="line" smooth="yes"/>
      <point x="975.832" y="1061.816"/>
      <point x="1048.168" y="990.768"/>
      <point x="1048.168" y="861.544" type="curve" smooth="yes"/>
      <point x="1048.168" y="624.096"/>
      <point x="915.456" y="397.944"/>
    </contour>
    <contour>
      <point x="468.712" y="1358.9840000000002" type="line"/>
      <point x="74.24799999999999" y="73.608" type="line"/>
      <point x="-92.736" y="24.535999999999998" type="line"/>
      <point x="-99.384" y="0.0" type="line"/>
      <point x="579.176" y="0.0" type="line"/>
      <point x="584.824" y="24.535999999999998" type="line"/>
      <point x="440.32000000000005" y="71.016" type="line"/>
      <point x="834.136" y="1356.3919999999998" type="line"/>
      <point x="1001.12" y="1405.4640000000002" type="line"/>
      <point x="1007.768" y="1430.0" type="line"/>
      <point x="329.856" y="1430.0" type="line"/>
      <point x="323.20799999999997" y="1405.4640000000002" type="line"/>
    </contour>
  </outline>
</glyph>
<glyph name="ae" format="2">
  <advance width="1616.3600000000001"/>
  <unicode hex="00E6"/>
  <anchor x="1019.256" y="1024.0" name="top"/>
  <anchor x="731.528" y="0.0" name="bottom"/>
  <outline>
    <contour>
      <point x="1123.9999999999998" y="856.56" type="line"/>
      <point x="1179.832" y="1024.0" type="line"/>
      <point x="900.84" y="1024.0" type="line"/>
      <point x="860.008" y="904.2080000000001" type="line"/>
      <point x="715.096" y="481.64" type="line" smooth="yes"/>
      <point x="556.24" y="221.512"/>
      <point x="471.232" y="171.264"/>
      <point x="407.19199999999995" y="171.264" type="curve" smooth="yes"/>
      <point x="357.02400000000006" y="171.264"/>
      <point x="334.81600000000003" y="193.488"/>
      <point x="334.81600000000003" y="266.176" type="curve" smooth="yes"/>
      <point x="334.81600000000003" y="486.904"/>
      <point x="562.584" y="925.7520000000001"/>
      <point x="762.4639999999999" y="925.7520000000001" type="curve" smooth="yes"/>
      <point x="813.56" y="925.7520000000001"/>
      <point x="853.84" y="904.176"/>
      <point x="887.304" y="836.52" type="curve"/>
      <point x="896.896" y="870.52" type="line"/>
      <point x="831.104" y="994.72"/>
      <point x="748.032" y="1049.0720000000001"/>
      <point x="656.904" y="1049.0720000000001" type="curve" smooth="yes"/>
      <point x="333.0" y="1049.0720000000001"/>
      <point x="-10.016" y="542.36"/>
      <point x="-10.016" y="183.256" type="curve" smooth="yes"/>
      <point x="-10.016" y="58.608"/>
      <point x="77.35199999999999" y="-26.48"/>
      <point x="208.272" y="-26.48" type="curve" smooth="yes"/>
      <point x="340.20799999999997" y="-26.48"/>
      <point x="488.408" y="36.336"/>
      <point x="735.0400000000001" y="455.904" type="curve"/>
      <point x="720.744" y="455.904" type="line"/>
      <point x="673.96" y="145.272"/>
      <point x="798.2719999999999" y="-26.48"/>
      <point x="1051.8159999999998" y="-26.48" type="curve" smooth="yes"/>
      <point x="1233.4560000000001" y="-26.48"/>
      <point x="1391.192" y="56.336"/>
      <point x="1533.208" y="422.864" type="curve"/>
      <point x="1518.968" y="423.568" type="line"/>
      <point x="1400.616" y="218.472"/>
      <point x="1293.744" y="169.912"/>
      <point x="1185.336" y="169.912" type="curve" smooth="yes"/>
      <point x="1076.0240000000001" y="169.912"/>
      <point x="1027.264" y="229.744"/>
      <point x="1027.264" y="364.616" type="curve" smooth="yes"/>
      <point x="1027.264" y="679.856"/>
      <point x="1190.448" y="991.04"/>
      <point x="1348.352" y="991.04" type="curve" smooth="yes"/>
      <point x="1388.856" y="991.04"/>
      <point x="1412.488" y="961.944"/>
      <point x="1412.488" y="895.24" type="curve" smooth="yes"/>
      <point x="1412.488" y="750.24"/>
      <point x="1329.448" y="642.112"/>
      <point x="953.7040000000001" y="506.504" type="curve"/>
      <point x="947.7040000000001" y="469.024" type="line"/>
      <point x="1170.0400000000002" y="524.136"/>
      <point x="1441.576" y="606.472"/>
      <point x="1577.896" y="663.2479999999999" type="curve"/>
      <point x="1621.136" y="721.6"/>
      <point x="1643.264" y="790.0799999999999"/>
      <point x="1643.264" y="861.336" type="curve" smooth="yes"/>
      <point x="1643.264" y="957.336"/>
      <point x="1593.28" y="1050.48"/>
      <point x="1430.104" y="1050.48" type="curve" smooth="yes"/>
      <point x="1285.352" y="1050.48"/>
      <point x="1182.392" y="972.8000000000001"/>
      <point x="1117.7040000000002" y="856.5600000000001" type="curve"/>
    </contour>
  </outline>
</glyph>
<glyph name="thorn" format="2">
  <advance width="1160.24"/>
  <unicode hex="00FE"/>
  <outline>
    <contour>
      <point x="354.064" y="269.312" type="curve" smooth="yes"/>
      <point x="434.136" y="557.3199999999999" type="line" smooth="yes"/>
      <point x="521.48" y="750.6320000000001"/>
      <point x="631.736" y="859.312"/>
      <point x="724.5120000000001" y="859.312" type="curve" smooth="yes"/>
      <point x="776.7919999999999" y="859.312"/>
      <point x="801.832" y="823.496"/>
      <point x="801.832" y="731.2719999999999" type="curve" smooth="yes"/>
      <point x="801.832" y="413.024"/>
      <point x="584.672" y="33.495999999999995"/>
      <point x="431.144" y="33.495999999999995" type="curve" smooth="yes"/>
      <point x="366.048" y="33.495999999999995"/>
      <point x="339.416" y="94.96000000000001"/>
      <point x="339.416" y="168.24" type="curve" smooth="yes"/>
      <point x="339.416" y="201.12800000000001"/>
      <point x="345.064" y="237.016"/>
    </contour>
    <contour>
      <point x="433.088" y="586.5600000000001" type="line"/>
      <point x="735.5999999999999" y="1490.48" type="line"/>
      <point x="720.288" y="1490.48" type="line"/>
      <point x="210.192" y="1394.688" type="line"/>
      <point x="204.656" y="1371.192" type="line"/>
      <point x="261.656" y="1319.2903311258278"/>
      <point x="320.304" y="1265.796001394214"/>
      <point x="356.304" y="1233.016" type="curve"/>
      <point x="-140.496" y="-375.04" type="line"/>
      <point x="-260.816" y="-408.928" type="line"/>
      <point x="-267.168" y="-438.52" type="line"/>
      <point x="294.848" y="-438.52" type="line"/>
      <point x="301.848" y="-408.28" type="line"/>
      <point x="180.616" y="-375.688" type="line"/>
      <point x="322.616" y="101.368" type="line"/>
      <point x="185.52" y="121.29599999999999" type="line"/>
      <point x="215.464" y="32.224000000000004"/>
      <point x="301.2" y="-26.48"/>
      <point x="462.952" y="-26.48" type="curve" smooth="yes"/>
      <point x="824.784" y="-26.48"/>
      <point x="1143.24" y="374.06399999999996"/>
      <point x="1143.24" y="762.976" type="curve" smooth="yes"/>
      <point x="1143.24" y="948.968"/>
      <point x="1050.56" y="1050.48"/>
      <point x="901.712" y="1050.48" type="curve" smooth="yes"/>
      <point x="737.1279999999999" y="1050.48"/>
      <point x="582.408" y="936.096"/>
      <point x="417.792" y="586.56" type="curve"/>
    </contour>
  </outline>
</glyph>
<glyph name="Aogonek" format="2">
  <advance width="1510.5120000000002"/>
  <unicode hex="0104"/>
  <outline>
    <contour>
      <point x="335.288" y="485.71999999999997" type="line"/>
      <point x="1015.712" y="485.71999999999997" type="line"/>
      <point x="1036.952" y="555.976" type="line"/>
      <point x="356.88" y="555.976" type="line"/>
    </contour>
    <contour>
      <point x="1280.656" y="78.736" type="line"/>
      <point x="1107.6" y="1437.04" type="line"/>
      <point x="909.6" y="1437.04" type="line"/>
      <point x="3.279999999999999" y="80.904" type="line"/>
      <point x="-159.296" y="24.535999999999998" type="line"/>
      <point x="-167.888" y="0.0" type="line"/>
      <point x="232.536" y="0.0" type="line"/>
      <point x="241.12800000000001" y="24.535999999999998" type="line"/>
      <point x="87.072" y="77.904" type="line"/>
      <point x="835.04" y="1212.224" type="line"/>
      <point x="807.8" y="1212.224" type="line"/>
      <point x="936.728" y="74.79199999999999" type="line"/>
      <point x="771.6" y="24.535999999999998" type="line"/>
      <point x="762.3599999999999" y="0.0" type="line"/>
      <point x="1401.5120000000002" y="0.0" type="line"/>
      <point x="1410.104" y="24.535999999999998" type="line"/>
    </contour>
    <contour>
      <point x="967.472" y="-274.488" type="curve" smooth="yes"/>
      <point x="967.472" y="-217.176"/>
      <point x="991.7839999999999" y="-162.008"/>
      <point x="1127.088" y="-26.840000000000003" type="curve" smooth="yes"/>
      <point x="1240.432" y="87.848" type="line"/>
      <point x="1211.008" y="87.848" type="line"/>
      <point x="1043.888" y="-56.064" type="line" smooth="yes"/>
      <point x="846.408" y="-218.208"/>
      <point x="818.3679999999999" y="-276.632"/>
      <point x="818.3679999999999" y="-353.984" type="curve" smooth="yes"/>
      <point x="818.3679999999999" y="-418.81600000000003"/>
      <point x="857.072" y="-465.0"/>
      <point x="951.1999999999999" y="-465.0" type="curve" smooth="yes"/>
      <point x="1021.1439999999999" y="-465.0"/>
      <point x="1082.568" y="-435.47999999999996"/>
      <point x="1187.968" y="-312.448" type="curve"/>
      <point x="1180.616" y="-301.504" type="line"/>
      <point x="1137.08" y="-334.264"/>
      <point x="1103.08" y="-348.616"/>
      <point x="1050.768" y="-348.616" type="curve" smooth="yes"/>
      <point x="995.6400000000001" y="-348.616"/>
      <point x="967.472" y="-322.432"/>
    </contour>
  </outline>
</glyph>
<glyph name="Eogonek" format="2">
  <advance width="1397.92"/>
  <unicode hex="0118"/>
  <outline>
    <contour>
      <point x="468.712" y="1358.9840000000002" type="line"/>
      <point x="74.24799999999999" y="73.608" type="line"/>
      <point x="-92.736" y="24.535999999999998" type="line"/>
      <point x="-99.384" y="0.0" type="line"/>
      <point x="419.08" y="0.0" type="line"/>
      <point x="856.024" y="1430.0" type="line"/>
      <point x="329.856" y="1430.0" type="line"/>
      <point x="323.20799999999997" y="1405.4640000000002" type="line"/>
    </contour>
    <contour>
      <point x="931.648" y="455.0" type="line"/>
      <point x="964.312" y="455.0" type="line"/>
      <point x="1021.312" y="746.0" type="line"/>
      <point x="1143.312" y="1039.0" type="line"/>
      <point x="1110.6480000000001" y="1039.0" type="line"/>
      <point x="932.184" y="796.3119999999999" type="line"/>
      <point x="544.648" y="762.4799999999999" type="line"/>
      <point x="527.928" y="730.5200000000001" type="line"/>
      <point x="908.1120000000001" y="700.6880000000001" type="line"/>
    </contour>
    <contour>
      <point x="1452.16" y="1000.544" type="line"/>
      <point x="1518.384" y="1505.384" type="line"/>
      <point x="1499.0720000000001" y="1505.384" type="line"/>
      <point x="1326.152" y="1430.0" type="line"/>
      <point x="653.28" y="1430.0" type="line"/>
      <point x="625.5600000000001" y="1359.744" type="line"/>
      <point x="1443.3919999999998" y="1359.744" type="line"/>
      <point x="1315.8" y="1386.8719999999998" type="line"/>
      <point x="1415.2" y="1000.544" type="line"/>
    </contour>
    <contour>
      <point x="1053.128" y="-71.496" type="line"/>
      <point x="1075.6799999999998" y="-71.496" type="line"/>
      <point x="1345.208" y="423.432" type="line"/>
      <point x="1312.248" y="444.264" type="line"/>
      <point x="899.76" y="49.016000000000005" type="line"/>
      <point x="1055.376" y="70.256" type="line"/>
      <point x="245.29600000000002" y="70.256" type="line"/>
      <point x="216.28" y="0.0" type="line"/>
      <point x="918.3520000000001" y="0.0" type="line"/>
    </contour>
    <contour>
      <point x="799.848" y="-270.968" type="curve" smooth="yes"/>
      <point x="799.848" y="-211.192"/>
      <point x="817.2" y="-151.136"/>
      <point x="917.808" y="-20.472" type="curve" smooth="yes"/>
      <point x="1000.8480000000001" y="87.848" type="line"/>
      <point x="971.424" y="87.848" type="line"/>
      <point x="839.736" y="-49.696" type="line" smooth="yes"/>
      <point x="672.8720000000001" y="-221.416"/>
      <point x="651.448" y="-283.67199999999997"/>
      <point x="651.448" y="-352.928" type="curve" smooth="yes"/>
      <point x="651.448" y="-418.81600000000003"/>
      <point x="690.152" y="-465.0"/>
      <point x="784.2800000000001" y="-465.0" type="curve" smooth="yes"/>
      <point x="854.224" y="-465.0"/>
      <point x="915.6479999999999" y="-435.47999999999996"/>
      <point x="1021.048" y="-312.448" type="curve"/>
      <point x="1013.696" y="-301.504" type="line"/>
      <point x="970.16" y="-334.264"/>
      <point x="936.1600000000001" y="-348.616"/>
      <point x="883.8480000000001" y="-348.616" type="curve" smooth="yes"/>
      <point x="825.904" y="-348.616"/>
      <point x="799.848" y="-321.728"/>
    </contour>
  </outline>
</glyph>
<glyph name="dotlessi" format="2">
  <advance width="687.792"/>
  <unicode hex="0131"/>
  <anchor x="517.784" y="1024.0" name="top"/>
  <anchor x="399.304" y="0.0" name="right"/>
  <anchor x="190.912" y="0.0" name="bottom"/>
  <outline>
    <contour>
      <point x="65.648" y="159.392" type="line" smooth="yes"/>
      <point x="16.856" y="25.904000000000003"/>
      <point x="44.744" y="-26.48"/>
      <point x="171.048" y="-26.48" type="curve" smooth="yes"/>
      <point x="310.87199999999996" y="-26.48"/>
      <point x="484.344" y="76.112"/>
      <point x="649.216" y="336.608" type="curve"/>
      <point x="637.6239999999999" y="344.25600000000003" type="line"/>
      <point x="453.064" y="144.384"/>
      <point x="342.44" y="130.696"/>
      <point x="261.856" y="138.904" type="curve"/>
      <point x="353.248" y="88.0" type="line"/>
      <point x="642.328" y="873.68" type="line" smooth="yes"/>
      <point x="684.88" y="990.0400000000001"/>
      <point x="664.936" y="1041.4080000000001"/>
      <point x="535.336" y="1041.4080000000001" type="curve" smooth="yes"/>
      <point x="386.216" y="1041.4080000000001"/>
      <point x="221.68800000000002" y="940.76"/>
      <point x="45.152" y="686.096" type="curve"/>
      <point x="58.040000000000006" y="676.504" type="line"/>
      <point x="224.08" y="845.36"/>
      <point x="291.216" y="871.4"/>
      <point x="400.94399999999996" y="856.1039999999999" type="curve"/>
      <point x="352.136" y="936.0" type="line"/>
    </contour>
  </outline>
</glyph>
<glyph name="lslash" format="2">
  <advance width="739.088"/>
  <unicode hex="0142"/>
  <outline>
    <contour>
      <point x="64.688" y="578.52" type="line"/>
      <point x="32.855999999999995" y="473.728" type="line"/>
      <point x="335.456" y="678.2" type="line"/>
      <point x="401.176" y="648.744" type="line"/>
      <point x="773.856" y="899.208" type="line"/>
      <point x="806.0400000000001" y="1004.0" type="line"/>
      <point x="433.008" y="753.5360000000001" type="line"/>
      <point x="367.288" y="782.992" type="line"/>
    </contour>
    <contour>
      <point x="419.712" y="1233.016" type="curve"/>
      <point x="76.424" y="160.04000000000002" type="line" smooth="yes"/>
      <point x="33.224000000000004" y="24.552"/>
      <point x="55.52" y="-26.48"/>
      <point x="184.28799999999998" y="-26.48" type="curve" smooth="yes"/>
      <point x="320.88800000000003" y="-26.48"/>
      <point x="496.304" y="83.888"/>
      <point x="667.008" y="354.10400000000004" type="curve"/>
      <point x="655.416" y="361.752" type="line"/>
      <point x="465.00800000000004" y="152.272"/>
      <point x="350.992" y="131.4"/>
      <point x="272.03999999999996" y="138.904" type="curve"/>
      <point x="362.024" y="87.648" type="line"/>
      <point x="811.9680000000001" y="1490.48" type="line"/>
      <point x="796.656" y="1490.48" type="line"/>
      <point x="273.6" y="1394.688" type="line"/>
      <point x="268.06399999999996" y="1371.192" type="line"/>
      <point x="325.06399999999996" y="1319.2903311258278"/>
      <point x="383.712" y="1265.796001394214"/>
    </contour>
  </outline>
</glyph>
<glyph name="Eng" format="2">
  <advance width="1504.016"/>
  <unicode hex="014A"/>
  <outline>
    <contour>
      <point x="1253.312" y="444.84000000000003" type="line"/>
      <point x="842.488" y="1430.0" type="line"/>
      <point x="307.248" y="1430.0" type="line"/>
      <point x="299.952" y="1405.464" type="line"/>
      <point x="465.472" y="1329.672" type="line"/>
      <point x="80.192" y="68.36800000000001" type="line"/>
      <point x="-86.144" y="24.535999999999998" type="line"/>
      <point x="-93.44" y="0.0" type="line"/>
      <point x="318.08" y="0.0" type="line"/>
      <point x="324.72799999999995" y="24.535999999999998" type="line"/>
      <point x="149.856" y="70.312" type="line"/>
      <point x="538.1360000000001" y="1347.0400000000002" type="line"/>
      <point x="509.8960000000001" y="1321.352" type="line"/>
      <point x="1105.4160000000002" y="-73.696" type="line"/>
    </contour>
    <contour>
      <point x="1135.3919999999998" y="-57.831999999999994" type="curve" smooth="yes"/>
      <point x="1568.1200000000001" y="1361.632" type="line"/>
      <point x="1734.456" y="1405.4640000000002" type="line"/>
      <point x="1741.7520000000002" y="1430.0" type="line"/>
      <point x="1330.232" y="1430.0" type="line"/>
      <point x="1323.584" y="1405.4640000000002" type="line"/>
      <point x="1498.456" y="1359.688" type="line"/>
      <point x="1081.968" y="-7.647999999999996" type="line" smooth="yes"/>
      <point x="996.9920000000001" y="-286.64799999999997"/>
      <point x="896.4799999999999" y="-355.944"/>
      <point x="775.76" y="-355.944" type="curve" smooth="yes"/>
      <point x="668.392" y="-355.944"/>
      <point x="630.688" y="-227.4"/>
      <point x="591.264" y="-227.4" type="curve" smooth="yes"/>
      <point x="526.232" y="-227.4"/>
      <point x="471.15999999999997" y="-277.35999999999996"/>
      <point x="471.15999999999997" y="-346.912" type="curve" smooth="yes"/>
      <point x="471.15999999999997" y="-412.28000000000003"/>
      <point x="521.176" y="-465.0"/>
      <point x="659.3919999999999" y="-465.0" type="curve" smooth="yes"/>
      <point x="906.808" y="-465.0"/>
      <point x="1050.488" y="-336.08000000000004"/>
    </contour>
  </outline>
</glyph>
<glyph name="scedilla" format="2">
  <advance width="825.784"/>
  <unicode hex="015F"/>
  <outline>
    <contour>
      <point x="112.8" y="-465.0" type="curve"/>
      <point x="284.31199999999995" y="-465.0"/>
      <point x="397.496" y="-357.74399999999997"/>
      <point x="397.496" y="-250.56000000000003" type="curve" smooth="yes"/>
      <point x="397.496" y="-184.56"/>
      <point x="356.664" y="-131.912"/>
      <point x="207.336" y="-82.728" type="curve"/>
      <point x="164.304" y="-180.49599999999998" type="line"/>
      <point x="334.728" y="5.280000000000001" type="line"/>
      <point x="275.584" y="5.280000000000001" type="line"/>
      <point x="78.80799999999999" y="-212.73600000000002" type="line"/>
      <point x="78.80799999999999" y="-217.38400000000001" type="line"/>
      <point x="230.84" y="-253.736"/>
      <point x="266.192" y="-293.552"/>
      <point x="266.192" y="-336.072" type="curve" smooth="yes"/>
      <point x="266.192" y="-382.464"/>
      <point x="228.15200000000002" y="-414.33599999999996"/>
      <point x="167.984" y="-414.33599999999996" type="curve" smooth="yes"/>
      <point x="93.336" y="-414.33599999999996"/>
      <point x="57.968" y="-324.672"/>
      <point x="42.968" y="-324.672" type="curve" smooth="yes"/>
      <point x="7.431999999999999" y="-324.672"/>
      <point x="-17.751999999999995" y="-347.968"/>
      <point x="-17.751999999999995" y="-387.74399999999997" type="curve" smooth="yes"/>
      <point x="-17.751999999999995" y="-428.224"/>
      <point x="15.727999999999998" y="-465.0"/>
    </contour>
    <contour>
      <point x="165.80800000000002" y="263.76800000000003" type="curve" smooth="yes"/>
      <point x="13.52" y="263.76800000000003"/>
      <point x="-36.128" y="222.344"/>
      <point x="-36.128" y="129.44" type="curve" smooth="yes"/>
      <point x="-36.128" y="34.888"/>
      <point x="42.736000000000004" y="-26.48"/>
      <point x="242.51999999999998" y="-26.48" type="curve" smooth="yes"/>
      <point x="521.432" y="-26.48"/>
      <point x="701.52" y="168.00799999999998"/>
      <point x="701.52" y="370.6" type="curve" smooth="yes"/>
      <point x="701.52" y="463.504"/>
      <point x="655.728" y="552.408"/>
      <point x="533.328" y="656.024" type="curve" smooth="yes"/>
      <point x="410.928" y="759.64"/>
      <point x="380.15200000000004" y="807.2719999999999"/>
      <point x="380.15200000000004" y="865.68" type="curve" smooth="yes"/>
      <point x="380.15200000000004" y="943.76"/>
      <point x="438.84000000000003" y="997.168"/>
      <point x="554.024" y="997.168" type="curve" smooth="yes"/>
      <point x="601.744" y="997.168"/>
      <point x="632.816" y="990.224"/>
      <point x="651.408" y="961.504" type="curve" smooth="yes"/>
      <point x="670.0000000000001" y="932.784"/>
      <point x="677.648" y="884.84"/>
      <point x="672.648" y="772.696" type="curve" smooth="yes"/>
      <point x="819.4" y="772.696"/>
      <point x="864.528" y="806.752"/>
      <point x="864.528" y="895.264" type="curve" smooth="yes"/>
      <point x="864.528" y="983.28"/>
      <point x="796.736" y="1050.48"/>
      <point x="604.488" y="1050.48" type="curve" smooth="yes"/>
      <point x="338.22400000000005" y="1050.48"/>
      <point x="176.26399999999998" y="881.968"/>
      <point x="176.26399999999998" y="674.92" type="curve" smooth="yes"/>
      <point x="176.26399999999998" y="574.5920000000001"/>
      <point x="215.51999999999998" y="493.296"/>
      <point x="338.91999999999996" y="390.84799999999996" type="curve" smooth="yes"/>
      <point x="462.32" y="288.4"/>
      <point x="490.784" y="235.248"/>
      <point x="490.784" y="176.432" type="curve" smooth="yes"/>
      <point x="490.784" y="90.112"/>
      <point x="429.096" y="39.128"/>
      <point x="300.20799999999997" y="39.128" type="curve" smooth="yes"/>
      <point x="251.76799999999997" y="39.128"/>
      <point x="218.39999999999998" y="46.664"/>
      <point x="196.512" y="76.792" type="curve" smooth="yes"/>
      <point x="174.624" y="106.92"/>
      <point x="164.624" y="164.99200000000002"/>
    </contour>
  </outline>
</glyph>
<glyph name="uni0162" format="2">
  <advance width="1474.736"/>
  <unicode hex="0162"/>
  <outline>
    <contour>
      <point x="1552.04" y="1359.7440000000001" type="line"/>
      <point x="1454.3760000000002" y="1375.392" type="line"/>
      <point x="1544.2" y="941.752" type="line"/>
      <point x="1579.384" y="941.752" type="line"/>
      <point x="1676.0320000000002" y="1508.832" type="line"/>
      <point x="1657.736" y="1508.832" type="line"/>
      <point x="1414.92" y="1403.6319999999998" type="line"/>
      <point x="1555.464" y="1430.0" type="line"/>
      <point x="464.312" y="1430.0" type="line"/>
      <point x="591.544" y="1403.6319999999998" type="line"/>
      <point x="410.28" y="1508.832" type="line"/>
      <point x="391.984" y="1508.832" type="line"/>
      <point x="166.672" y="957.232" type="line"/>
      <point x="200.04" y="938.104" type="line"/>
      <point x="556.7919999999999" y="1375.392" type="line"/>
      <point x="414.536" y="1359.7440000000001" type="line"/>
    </contour>
    <contour>
      <point x="822.176" y="1395.464" type="line"/>
      <point x="416.12" y="73.608" type="line"/>
      <point x="249.13600000000002" y="24.535999999999998" type="line"/>
      <point x="242.488" y="0.0" type="line"/>
      <point x="921.048" y="0.0" type="line"/>
      <point x="926.696" y="24.535999999999998" type="line"/>
      <point x="782.192" y="71.016" type="line"/>
      <point x="1188.896" y="1395.464" type="line"/>
    </contour>
    <contour>
      <point x="419.192" y="-465.0" type="curve"/>
      <point x="590.704" y="-465.0"/>
      <point x="703.8879999999999" y="-357.74399999999997"/>
      <point x="703.8879999999999" y="-250.56000000000003" type="curve" smooth="yes"/>
      <point x="703.8879999999999" y="-184.56"/>
      <point x="663.056" y="-131.912"/>
      <point x="513.728" y="-82.728" type="curve"/>
      <point x="470.696" y="-180.49599999999998" type="line"/>
      <point x="670.28" y="37.032" type="line"/>
      <point x="610.488" y="37.032" type="line"/>
      <point x="385.2" y="-212.73600000000002" type="line"/>
      <point x="385.2" y="-217.38400000000001" type="line"/>
      <point x="537.232" y="-253.736"/>
      <point x="572.5840000000001" y="-293.552"/>
      <point x="572.5840000000001" y="-336.072" type="curve" smooth="yes"/>
      <point x="572.5840000000001" y="-382.464"/>
      <point x="534.544" y="-414.33599999999996"/>
      <point x="474.37600000000003" y="-414.33599999999996" type="curve" smooth="yes"/>
      <point x="399.728" y="-414.33599999999996"/>
      <point x="364.36" y="-324.672"/>
      <point x="349.36" y="-324.672" type="curve" smooth="yes"/>
      <point x="313.82399999999996" y="-324.672"/>
      <point x="288.64" y="-347.968"/>
      <point x="288.64" y="-387.74399999999997" type="curve" smooth="yes"/>
      <point x="288.64" y="-428.224"/>
      <point x="322.12" y="-465.0"/>
    </contour>
  </outline>
</glyph>
<glyph name="Ohorn" format="2">
  <advance width="1575.7520000000002"/>
  <unicode hex="01A0"/>
  <anchor x="1088.584" y="1430.0" name="UCtop"/>
  <anchor x="594.664" y="0.0" name="bottom"/>
  <outline>
    <contour>
      <point x="444.712" y="325.288" type="curve" smooth="yes"/>
      <point x="444.712" y="698.072"/>
      <point x="707.544" y="1385.5040000000001"/>
      <point x="1056.672" y="1385.5040000000001" type="curve" smooth="yes"/>
      <point x="1183.952" y="1385.5040000000001"/>
      <point x="1253.984" y="1297.232"/>
      <point x="1253.984" y="1104.712" type="curve" smooth="yes"/>
      <point x="1253.984" y="731.928"/>
      <point x="991.152" y="44.496"/>
      <point x="642.024" y="44.496" type="curve" smooth="yes"/>
      <point x="514.744" y="44.496"/>
      <point x="444.712" y="132.768"/>
    </contour>
    <contour>
      <point x="1587.616" y="920.608" type="curve" smooth="yes"/>
      <point x="1587.616" y="1124.096"/>
      <point x="1509.5919999999999" y="1282.152"/>
      <point x="1371.6480000000001" y="1370.4640000000002" type="curve"/>
      <point x="1371.648" y="1358.52" type="line"/>
      <point x="1635.008" y="1317.5040000000001"/>
      <point x="1787.656" y="1433.576"/>
      <point x="1787.656" y="1633.0" type="curve" smooth="yes"/>
      <point x="1787.656" y="1706.368"/>
      <point x="1750.528" y="1761.68"/>
      <point x="1676.4399999999998" y="1761.68" type="curve" smooth="yes"/>
      <point x="1613.072" y="1761.68"/>
      <point x="1562.704" y="1719.032"/>
      <point x="1562.704" y="1678.664" type="curve" smooth="yes"/>
      <point x="1562.704" y="1663.128"/>
      <point x="1604.5919999999999" y="1614.1680000000001"/>
      <point x="1604.5919999999999" y="1553.056" type="curve" smooth="yes"/>
      <point x="1604.5919999999999" y="1462.592"/>
      <point x="1537.112" y="1408.536"/>
      <point x="1411.8719999999998" y="1408.536" type="curve" smooth="yes"/>
      <point x="1289.856" y="1408.536"/>
      <point x="1189.784" y="1456.48"/>
      <point x="1038.136" y="1456.48" type="curve" smooth="yes"/>
      <point x="490.74399999999997" y="1456.48"/>
      <point x="111.08" y="957.84"/>
      <point x="111.08" y="509.392" type="curve" smooth="yes"/>
      <point x="111.08" y="190.536"/>
      <point x="297.048" y="-26.48"/>
      <point x="660.56" y="-26.48" type="curve" smooth="yes"/>
      <point x="1207.952" y="-26.48"/>
      <point x="1587.616" y="472.16"/>
    </contour>
  </outline>
</glyph>
<glyph name="Uhorn" format="2">
  <advance width="1582.04"/>
  <unicode hex="01AF"/>
  <anchor x="1142.56" y="1430.0" name="UCtop"/>
  <anchor x="695.12" y="0.0" name="bottom"/>
  <outline>
    <contour>
      <point x="560.992" y="584.208" type="curve" smooth="yes"/>
      <point x="797.5840000000001" y="1356.3919999999998" type="line"/>
      <point x="964.568" y="1405.4640000000002" type="line"/>
      <point x="971.2159999999999" y="1430.0" type="line"/>
      <point x="293.304" y="1430.0" type="line"/>
      <point x="286.656" y="1405.4640000000002" type="line"/>
      <point x="432.15999999999997" y="1358.9840000000002" type="line"/>
      <point x="214.696" y="652.128" type="line" smooth="yes"/>
      <point x="82.768" y="222.88000000000002"/>
      <point x="253.40800000000002" y="-26.48"/>
      <point x="742.416" y="-26.48" type="curve" smooth="yes"/>
      <point x="1076.488" y="-26.48"/>
      <point x="1264.912" y="126.48799999999999"/>
      <point x="1389.096" y="534.576" type="curve" smooth="yes"/>
      <point x="1640.856" y="1362.04" type="line"/>
      <point x="1927.888" y="1361.0240000000001"/>
      <point x="2030.8719999999998" y="1476.112"/>
      <point x="2030.8719999999998" y="1633.0" type="curve" smooth="yes"/>
      <point x="2030.8719999999998" y="1706.368"/>
      <point x="1993.744" y="1761.68"/>
      <point x="1919.656" y="1761.68" type="curve" smooth="yes"/>
      <point x="1856.288" y="1761.68"/>
      <point x="1805.92" y="1719.032"/>
      <point x="1805.92" y="1678.664" type="curve" smooth="yes"/>
      <point x="1805.92" y="1663.128"/>
      <point x="1847.808" y="1614.1680000000001"/>
      <point x="1847.808" y="1553.056" type="curve" smooth="yes"/>
      <point x="1847.808" y="1467.8719999999998"/>
      <point x="1806.7169488372094" y="1430.0"/>
      <point x="1675.28" y="1430.0" type="curve" smooth="yes"/>
      <point x="1402.616" y="1430.0" type="line"/>
      <point x="1395.9679999999998" y="1405.4640000000002" type="line"/>
      <point x="1570.84" y="1359.688" type="line"/>
      <point x="1336.616" y="590.128" type="line" smooth="yes"/>
      <point x="1243.464" y="285.264"/>
      <point x="1101.568" y="169.81600000000003"/>
      <point x="861.3439999999999" y="169.81600000000003" type="curve" smooth="yes"/>
      <point x="577.992" y="169.81600000000003"/>
      <point x="474.56" y="301.68800000000005"/>
    </contour>
  </outline>
</glyph>
<glyph name="uni01EA" format="2">
  <advance width="1575.6960000000001"/>
  <unicode hex="01EA"/>
  <outline>
    <contour>
      <point x="444.712" y="325.288" type="curve" smooth="yes"/>
      <point x="444.712" y="698.072"/>
      <point x="707.544" y="1385.5040000000001"/>
      <point x="1056.672" y="1385.5040000000001" type="curve" smooth="yes"/>
      <point x="1183.952" y="1385.5040000000001"/>
      <point x="1253.984" y="1297.232"/>
      <point x="1253.984" y="1104.712" type="curve" smooth="yes"/>
      <point x="1253.984" y="731.928"/>
      <point x="991.152" y="44.496"/>
      <point x="642.024" y="44.496" type="curve" smooth="yes"/>
      <point x="514.744" y="44.496"/>
      <point x="444.712" y="132.768"/>
    </contour>
    <contour>
      <point x="1587.616" y="920.608" type="curve" smooth="yes"/>
      <point x="1587.616" y="1239.464"/>
      <point x="1401.648" y="1456.48"/>
      <point x="1038.136" y="1456.48" type="curve" smooth="yes"/>
      <point x="490.74399999999997" y="1456.48"/>
      <point x="111.08" y="957.84"/>
      <point x="111.08" y="509.392" type="curve" smooth="yes"/>
      <point x="111.08" y="190.536"/>
      <point x="297.048" y="-26.48"/>
      <point x="660.56" y="-26.48" type="curve" smooth="yes"/>
      <point x="1207.952" y="-26.48"/>
      <point x="1587.616" y="472.16"/>
    </contour>
    <contour>
      <point x="471.72" y="-275.544" type="curve" smooth="yes"/>
      <point x="471.72" y="-218.232"/>
      <point x="495.424" y="-162.008"/>
      <point x="641.032" y="-28.248000000000005" type="curve" smooth="yes"/>
      <point x="679.24" y="8.72" type="line"/>
      <point x="635.632" y="8.72" type="line"/>
      <point x="554.9599999999999" y="-57.472" type="line" smooth="yes"/>
      <point x="350.12" y="-218.91199999999998"/>
      <point x="321.20799999999997" y="-276.632"/>
      <point x="321.20799999999997" y="-353.984" type="curve" smooth="yes"/>
      <point x="321.20799999999997" y="-418.81600000000003"/>
      <point x="359.912" y="-465.0"/>
      <point x="454.04" y="-465.0" type="curve" smooth="yes"/>
      <point x="523.984" y="-465.0"/>
      <point x="585.4079999999999" y="-435.47999999999996"/>
      <point x="690.808" y="-312.448" type="curve"/>
      <point x="683.456" y="-301.504" type="line"/>
      <point x="639.92" y="-334.264"/>
      <point x="605.9200000000001" y="-348.616"/>
      <point x="553.6080000000001" y="-348.616" type="curve" smooth="yes"/>
      <point x="498.48" y="-348.616"/>
      <point x="471.72" y="-323.488"/>
    </contour>
  </outline>
</glyph>
<glyph name="uni01EB" format="2">
  <advance width="1076.224"/>
  <unicode hex="01EB"/>
  <outline>
    <contour>
      <point x="688.6160000000001" y="1050.48" type="curve" smooth="yes"/>
      <point x="337.144" y="1050.48"/>
      <point x="35.464" y="704.56"/>
      <point x="35.464" y="334.912" type="curve" smooth="yes"/>
      <point x="35.464" y="112.92"/>
      <point x="155.456" y="-26.48"/>
      <point x="385.90400000000005" y="-26.48" type="curve" smooth="yes"/>
      <point x="737.376" y="-26.48"/>
      <point x="1039.056" y="319.44"/>
      <point x="1039.056" y="689.0880000000001" type="curve" smooth="yes"/>
      <point x="1039.056" y="911.08"/>
      <point x="919.0640000000001" y="1050.48"/>
    </contour>
    <contour>
      <point x="365.576" y="32.791999999999994" type="curve" smooth="yes"/>
      <point x="323.49600000000004" y="32.791999999999994"/>
      <point x="304.568" y="60.57599999999999"/>
      <point x="304.568" y="133.456" type="curve" smooth="yes"/>
      <point x="304.568" y="464.63200000000006"/>
      <point x="537.7520000000001" y="991.208"/>
      <point x="708.944" y="991.208" type="curve" smooth="yes"/>
      <point x="751.024" y="991.208"/>
      <point x="769.952" y="963.424"/>
      <point x="769.952" y="890.544" type="curve" smooth="yes"/>
      <point x="769.952" y="559.3679999999999"/>
      <point x="536.7679999999999" y="32.791999999999994"/>
    </contour>
    <contour>
      <point x="362.232" y="-28.248000000000005" type="curve" smooth="yes"/>
      <point x="466.072" y="62.856" type="line"/>
      <point x="433.48" y="62.856" type="line"/>
      <point x="276.568" y="-57.472" type="line" smooth="yes"/>
      <point x="69.232" y="-218.91199999999998"/>
      <point x="40.84" y="-276.632"/>
      <point x="40.84" y="-353.984" type="curve" smooth="yes"/>
      <point x="40.84" y="-418.81600000000003"/>
      <point x="79.544" y="-465.0"/>
      <point x="173.672" y="-465.0" type="curve" smooth="yes"/>
      <point x="243.61599999999999" y="-465.0"/>
      <point x="305.04" y="-435.47999999999996"/>
      <point x="410.44000000000005" y="-312.448" type="curve"/>
      <point x="403.08799999999997" y="-301.504" type="line"/>
      <point x="359.55199999999996" y="-334.264"/>
      <point x="325.55199999999996" y="-348.616"/>
      <point x="273.24" y="-348.616" type="curve" smooth="yes"/>
      <point x="218.11200000000002" y="-348.616"/>
      <point x="191.352" y="-323.488"/>
      <point x="191.352" y="-275.544" type="curve" smooth="yes"/>
      <point x="191.352" y="-218.232"/>
      <point x="216.368" y="-162.008"/>
    </contour>
  </outline>
</glyph>
<glyph name="uni02B9" format="2">
  <advance width="376.784"/>
  <unicode hex="02B9"/>
  <outline>
    <contour>
      <point x="206.26399999999998" y="922.12" type="line"/>
      <point x="265.0" y="922.12" type="line"/>
      <point x="648.3520000000001" y="1410.816" type="line"/>
      <point x="649.76" y="1430.0" type="line"/>
      <point x="359.13599999999997" y="1430.0" type="line"/>
    </contour>
  </outline>
</glyph>
<glyph name="uni030A" format="2">
  <unicode hex="030A"/>
  <anchor x="157.35199999999998" y="1024.0" name="_top"/>
  <anchor x="291.0" y="1464.0" name="top"/>
  <outline>
    <contour>
      <point x="264.35200000000003" y="1488.536" type="curve" smooth="yes"/>
      <point x="132.22400000000002" y="1488.536"/>
      <point x="47.168" y="1389.8064834123222"/>
      <point x="47.168" y="1273.352" type="curve" smooth="yes"/>
      <point x="47.168" y="1175.112"/>
      <point x="115.816" y="1113.1119999999999"/>
      <point x="216.352" y="1113.1119999999999" type="curve" smooth="yes"/>
      <point x="348.48" y="1113.1119999999999"/>
      <point x="433.536" y="1212.0"/>
      <point x="433.536" y="1328.648" type="curve" smooth="yes"/>
      <point x="433.536" y="1426.6750063694267"/>
      <point x="364.24" y="1488.536"/>
    </contour>
    <contour>
      <point x="222.352" y="1162.8880000000001" type="curve" smooth="yes"/>
      <point x="149.0" y="1162.8880000000001"/>
      <point x="104.888" y="1206.1840000000002"/>
      <point x="104.888" y="1281.888" type="curve" smooth="yes"/>
      <point x="104.888" y="1362.1189333333332"/>
      <point x="161.832" y="1438.76"/>
      <point x="258.35200000000003" y="1438.76" type="curve" smooth="yes"/>
      <point x="331.704" y="1438.76"/>
      <point x="376.168" y="1395.5882352941176"/>
      <point x="376.168" y="1320.112" type="curve" smooth="yes"/>
      <point x="376.168" y="1239.704"/>
      <point x="318.872" y="1162.8880000000001"/>
    </contour>
  </outline>
</glyph>
<glyph name="uni030C" format="2">
  <unicode hex="030C"/>
  <anchor x="157.0" y="1024.0" name="_top"/>
  <anchor x="291.0" y="1464.0" name="top"/>
  <outline>
    <contour>
      <point x="606.2" y="1464.0" type="line"/>
      <point x="546.944" y="1464.0" type="line"/>
      <point x="152.112" y="1241.328" type="line"/>
      <point x="253.792" y="1241.328" type="line"/>
      <point x="18.576" y="1464.0" type="line"/>
      <point x="-24.552000000000003" y="1464.0" type="line"/>
      <point x="100.78399999999999" y="1138.0" type="line"/>
      <point x="281.62399999999997" y="1138.0" type="line"/>
    </contour>
  </outline>
</glyph>
<glyph name="uni030F" format="2">
  <unicode hex="030F"/>
  <anchor x="157.0" y="1024.0" name="_top"/>
  <anchor x="291.0" y="1464.0" name="top"/>
  <outline>
    <contour>
      <point x="77.52799999999999" y="1138.0" type="line"/>
      <point x="14.984000000000002" y="1464.0" type="line"/>
      <point x="-195.248" y="1464.0" type="line"/>
      <point x="-196.304" y="1454.704" type="line"/>
      <point x="28.047999999999995" y="1138.0" type="line"/>
    </contour>
    <contour>
      <point x="313.76800000000003" y="1138.0" type="line"/>
      <point x="349.81600000000003" y="1464.0" type="line"/>
      <point x="149.45600000000002" y="1464.0" type="line"/>
      <point x="148.75199999999998" y="1454.704" type="line"/>
      <point x="270.99199999999996" y="1138.0" type="line"/>
    </contour>
  </outline>
</glyph>
<glyph name="dotbelowcomb" format="2">
  <unicode hex="0323"/>
  <anchor x="-157.0" y="0.0" name="_bottom"/>
  <anchor x="-299.0" y="-465.0" name="bottom"/>
  <outline>
    <contour>
      <point x="-243.944" y="-351.216" type="curve" smooth="yes"/>
      <point x="-143.54399999999998" y="-351.216"/>
      <point x="-82.248" y="-281.256"/>
      <point x="-82.248" y="-192.112" type="curve" smooth="yes"/>
      <point x="-82.248" y="-129.264"/>
      <point x="-131.392" y="-82.136"/>
      <point x="-203.648" y="-82.136" type="curve" smooth="yes"/>
      <point x="-304.4" y="-82.136"/>
      <point x="-365.696" y="-152.096"/>
      <point x="-365.696" y="-241.23999999999998" type="curve" smooth="yes"/>
      <point x="-365.696" y="-304.088"/>
      <point x="-316.552" y="-351.216"/>
    </contour>
  </outline>
</glyph>
<glyph name="uni0335" format="2">
  <unicode hex="0335"/>
  <anchor x="212.0" y="1207.0" name="_center"/>
  <outline>
    <contour>
      <point x="-180.096" y="1169.1680000000001" type="line"/>
      <point x="581.856" y="1169.1680000000001" type="line"/>
      <point x="605.096" y="1244.832" type="line"/>
      <point x="-156.856" y="1244.832" type="line"/>
    </contour>
  </outline>
</glyph>
<glyph name="dagger" format="2">
  <advance width="722.3919999999999"/>
  <unicode hex="2020"/>
  <outline>
    <contour>
      <point x="587.704" y="1194.536" type="line"/>
      <point x="740.144" y="1464.0" type="line"/>
      <point x="551.896" y="1464.0" type="line"/>
      <point x="537.9839999999999" y="1194.536" type="line"/>
      <point x="389.67199999999997" y="906.016" type="line"/>
      <point x="380.928" y="627.0" type="line"/>
      <point x="398.464" y="627.0" type="line"/>
      <point x="560.2" y="906.016" type="line"/>
    </contour>
    <contour>
      <point x="571.112" y="1220.072" type="line"/>
      <point x="328.592" y="1287.864" type="line"/>
      <point x="270.688" y="1099.56" type="line"/>
      <point x="555.872" y="1168.3519999999999" type="line"/>
      <point x="802.6880000000001" y="1099.56" type="line"/>
      <point x="860.5920000000001" y="1287.864" type="line"/>
    </contour>
  </outline>
</glyph>
<glyph name="bullet" format="2">
  <advance width="819.696"/>
  <unicode hex="2022"/>
  <outline>
    <contour>
      <point x="411.848" y="769.696" type="curve" smooth="yes"/>
      <point x="264.76000000000005" y="769.696"/>
      <point x="158.208" y="658.792"/>
      <point x="158.208" y="522.0" type="curve" smooth="yes"/>
      <point x="158.208" y="385.20799999999997"/>
      <point x="264.76000000000005" y="274.304"/>
      <point x="411.848" y="274.304" type="curve" smooth="yes"/>
      <point x="558.936" y="274.304"/>
      <point x="665.4879999999999" y="385.20799999999997"/>
      <point x="665.4879999999999" y="522.0" type="curve" smooth="yes"/>
      <point x="665.4879999999999" y="658.792"/>
      <point x="558.936" y="769.696"/>
    </contour>
  </outline>
</glyph>
<glyph name="guilsinglright" format="2">
  <advance width="602.0719999999999"/>
  <unicode hex="203A"/>
  <outline>
    <contour>
      <point x="295.16" y="455.464" type="line"/>
      <point x="347.728" y="650.8240000000001" type="line"/>
      <point x="-37.663999999999994" y="89.8" type="line"/>
      <point x="-22.72" y="74.856" type="line"/>
      <point x="519.088" y="513.7040000000001" type="line"/>
      <point x="524.7360000000001" y="531.592" type="line"/>
      <point x="251.29600000000002" y="970.4399999999999" type="line"/>
      <point x="230.056" y="963.736" type="line"/>
    </contour>
  </outline>
</glyph>
<glyph name="trademark" format="2">
  <advance width="1634.208"/>
  <unicode hex="2122"/>
  <outline>
    <contour>
      <point x="558.392" y="1414.112" type="line"/>
      <point x="404.576" y="911.016" type="line"/>
      <point x="322.04" y="888.424" type="line"/>
      <point x="314.448" y="863.0" type="line"/>
      <point x="627.584" y="863.0" type="line"/>
      <point x="635.1759999999999" y="888.424" type="line"/>
      <point x="567.176" y="911.016" type="line"/>
      <point x="720.992" y="1414.112" type="line"/>
    </contour>
    <contour>
      <point x="1586.056" y="913.312" type="line"/>
      <point x="1693.576" y="1383.28" type="line"/>
      <point x="1777.52" y="1404.872" type="line"/>
      <point x="1785.464" y="1430.0" type="line"/>
      <point x="1523.144" y="1430.0" type="line"/>
      <point x="1243.408" y="997.152" type="line"/>
      <point x="1249.7839999999999" y="997.152" type="line"/>
      <point x="1230.392" y="1430.0" type="line"/>
      <point x="980.96" y="1430.0" type="line"/>
      <point x="973.0160000000001" y="1404.872" type="line"/>
      <point x="1045.608" y="1371.3919999999998" type="line"/>
      <point x="874.6800000000001" y="903.424" type="line"/>
      <point x="795.088" y="888.424" type="line"/>
      <point x="787.496" y="863.0" type="line"/>
      <point x="973.16" y="863.0" type="line"/>
      <point x="981.1039999999999" y="888.424" type="line"/>
      <point x="920.104" y="903.424" type="line"/>
      <point x="1091.032" y="1375.096" type="line"/>
      <point x="1075.0320000000002" y="1374.448" type="line"/>
      <point x="1101.312" y="861.592" type="line"/>
      <point x="1202.304" y="861.592" type="line"/>
      <point x="1525.904" y="1362.5600000000002" type="line"/>
      <point x="1521.7920000000001" y="1363.5600000000002" type="line"/>
      <point x="1416.864" y="913.312" type="line"/>
      <point x="1339.568" y="888.424" type="line"/>
      <point x="1330.976" y="863.0" type="line"/>
      <point x="1650.704" y="863.0" type="line"/>
      <point x="1658.648" y="888.424" type="line"/>
    </contour>
    <contour>
      <point x="874.496" y="1384.9279999999999" type="line"/>
      <point x="833.016" y="1406.52" type="line"/>
      <point x="853.552" y="1215.0240000000001" type="line"/>
      <point x="877.68" y="1216.968" type="line"/>
      <point x="928.8639999999999" y="1462.9440000000002" type="line"/>
      <point x="911.032" y="1462.9440000000002" type="line"/>
      <point x="830.072" y="1418.76" type="line"/>
      <point x="879.384" y="1430.0" type="line"/>
      <point x="409.944" y="1430.0" type="line"/>
      <point x="461.848" y="1418.76" type="line"/>
      <point x="398.592" y="1462.9440000000002" type="line"/>
      <point x="380.40799999999996" y="1462.9440000000002" type="line"/>
      <point x="280.68800000000005" y="1217.32" type="line"/>
      <point x="304.52" y="1214.672" type="line"/>
      <point x="464.368" y="1406.52" type="line"/>
      <point x="386.352" y="1384.9279999999999" type="line"/>
    </contour>
  </outline>
</glyph>
<glyph name="minus" format="2">
  <advance width="1150.0"/>
  <unicode hex="2212"/>
  <outline>
    <contour>
      <point x="177.24" y="554.72" type="line"/>
      <point x="150.76" y="469.28000000000003" type="line"/>
      <point x="972.76" y="469.28000000000003" type="line"/>
      <point x="999.24" y="554.72" type="line"/>
    </contour>
  </outline>
</glyph>
<glyph name="notequal" format="2">
  <advance width="1150.0"/>
  <unicode hex="2260"/>
  <outline>
    <contour>
      <point x="13.0" y="22.0" type="line"/>
      <point x="124.27199999999999" y="22.0" type="line"/>
      <point x="1135.0" y="1001.0" type="line"/>
      <point x="1023.7280000000001" y="1001.0" type="line"/>
    </contour>
    <contour>
      <point x="228.24" y="725.72" type="line"/>
      <point x="202.408" y="640.28" type="line"/>
      <point x="1024.408" y="640.28" type="line"/>
      <point x="1050.24" y="725.72" type="line"/>
    </contour>
    <contour>
      <point x="124.24000000000001" y="385.71999999999997" type="line"/>
      <point x="98.408" y="300.28000000000003" type="line"/>
      <point x="920.408" y="300.28000000000003" type="line"/>
      <point x="946.24" y="385.71999999999997" type="line"/>
    </contour>
  </outline>
</glyph>
<glyph name="lessequal" format="2">
  <advance width="1150.0"/>
  <unicode hex="2264"/>
  <outline>
    <contour>
      <point x="276.68" y="622.704" type="line"/>
      <point x="1126.872" y="935.2639999999999" type="line"/>
      <point x="1157.352" y="1036.0" type="line"/>
      <point x="212.296" y="679.1279999999999" type="line"/>
      <point x="188.40800000000002" y="598.8720000000001" type="line"/>
      <point x="915.352" y="242.0" type="line"/>
      <point x="940.5360000000001" y="324.84799999999996" type="line"/>
      <point x="282.68" y="643.408" type="line"/>
    </contour>
    <contour>
      <point x="31.535999999999998" y="85.44" type="line"/>
      <point x="4.704" y="0.0" type="line"/>
      <point x="840.7040000000001" y="0.0" type="line"/>
      <point x="867.5360000000001" y="85.44" type="line"/>
    </contour>
  </outline>
</glyph>
<glyph name="uni27E8" format="2">
  <advance width="1150.0"/>
  <unicode hex="27E8"/>
  <outline>
    <contour>
      <point x="366.072" y="675.056" type="line"/>
      <point x="1188.368" y="1430.0" type="line"/>
      <point x="1074.632" y="1430.0" type="line"/>
      <point x="294.336" y="720.0" type="line"/>
      <point x="290.336" y="708.0" type="line"/>
      <point x="655.2239999999999" y="0.0" type="line"/>
      <point x="747.552" y="0.0" type="line"/>
      <point x="379.072" y="723.056" type="line"/>
    </contour>
  </outline>
</glyph>
<glyph name="fi" format="2">
  <advance width="1290.8719999999998"/>
  <unicode hex="FB01"/>
  <outline>
    <contour>
      <point x="118.744" y="950.616" type="line"/>
      <point x="1074.384" y="950.616" type="line"/>
      <point x="971.088" y="982.264" type="line"/>
      <point x="669.968" y="159.392" type="line" smooth="yes"/>
      <point x="621.1759999999999" y="25.256000000000004"/>
      <point x="649.064" y="-26.48"/>
      <point x="773.4240000000001" y="-26.48" type="curve" smooth="yes"/>
      <point x="913.248" y="-26.48"/>
      <point x="1086.72" y="76.112"/>
      <point x="1251.5919999999999" y="336.608" type="curve"/>
      <point x="1240.0" y="344.25600000000003" type="line"/>
      <point x="1055.44" y="144.384"/>
      <point x="944.8159999999999" y="130.696"/>
      <point x="864.232" y="138.904" type="curve"/>
      <point x="957.5680000000001" y="88.0" type="line"/>
      <point x="1308.736" y="1050.48" type="line"/>
      <point x="1272.056" y="1050.48" type="line"/>
      <point x="1191.12" y="1032.944"/>
      <point x="1105.96" y="1024.0"/>
      <point x="1015.872" y="1024.0" type="curve" smooth="yes"/>
      <point x="130.984" y="1024.0" type="line"/>
    </contour>
    <contour>
      <point x="479.608" y="293.37600000000003" type="curve" smooth="yes"/>
      <point x="689.1440000000001" y="1107.84" type="line" smooth="yes"/>
      <point x="753.016" y="1354.848"/>
      <point x="830.656" y="1436.2240000000002"/>
      <point x="935.3439999999999" y="1436.2240000000002" type="curve" smooth="yes"/>
      <point x="993.344" y="1436.2240000000002"/>
      <point x="1009.808" y="1407.9279999999999"/>
      <point x="1003.992" y="1303.3600000000001" type="curve" smooth="yes"/>
      <point x="998.176" y="1198.792"/>
      <point x="1025.376" y="1169.496"/>
      <point x="1099.0" y="1169.496" type="curve" smooth="yes"/>
      <point x="1204.848" y="1169.496"/>
      <point x="1285.752" y="1235.456"/>
      <point x="1285.752" y="1334.6" type="curve" smooth="yes"/>
      <point x="1285.752" y="1423.28"/>
      <point x="1210.312" y="1490.48"/>
      <point x="1014.696" y="1490.48" type="curve" smooth="yes"/>
      <point x="656.1279999999999" y="1490.48"/>
      <point x="386.56" y="1255.2"/>
      <point x="316.04" y="933.4" type="curve" smooth="yes"/>
      <point x="103.26400000000001" y="-38.232" type="line" smooth="yes"/>
      <point x="40.832" y="-321.312"/>
      <point x="-43.263999999999996" y="-403.744"/>
      <point x="-130.432" y="-403.744" type="curve" smooth="yes"/>
      <point x="-177.096" y="-403.744"/>
      <point x="-187.096" y="-380.672"/>
      <point x="-163.32000000000002" y="-282.40000000000003" type="curve" smooth="yes"/>
      <point x="-139.54399999999998" y="-184.128"/>
      <point x="-161.08" y="-141.632"/>
      <point x="-247.128" y="-141.632" type="curve" smooth="yes"/>
      <point x="-335.40000000000003" y="-141.632"/>
      <point x="-386.656" y="-206.88799999999998"/>
      <point x="-386.656" y="-285.62399999999997" type="curve" smooth="yes"/>
      <point x="-386.656" y="-390.08"/>
      <point x="-305.79200000000003" y="-465.0"/>
      <point x="-156.12" y="-465.0" type="curve" smooth="yes"/>
      <point x="92.456" y="-465.0"/>
      <point x="338.648" y="-254.61599999999999"/>
    </contour>
  </outline>
</glyph>
<glyph name="fl" format="2">
  <advance width="1281.152"/>
  <unicode hex="FB02"/>
  <outline>
    <contour>
      <point x="83.10399999999998" y="950.616" type="line"/>
      <point x="824.824" y="950.616" type="line"/>
      <point x="837.064" y="1024.0" type="line"/>
      <point x="95.344" y="1024.0" type="line"/>
    </contour>
    <contour>
      <point x="443.96799999999996" y="293.37600000000003" type="curve" smooth="yes"/>
      <point x="653.504" y="1107.84" type="line" smooth="yes"/>
      <point x="713.4879999999999" y="1341.296"/>
      <point x="817.768" y="1436.576"/>
      <point x="940.8" y="1436.576" type="curve" smooth="yes"/>
      <point x="1004.856" y="1436.576"/>
      <point x="1030.544" y="1402.744"/>
      <point x="1040.664" y="1333.536" type="curve" smooth="yes"/>
      <point x="665.696" y="160.04000000000002" type="line" smooth="yes"/>
      <point x="622.4960000000001" y="25.2"/>
      <point x="644.792" y="-26.48"/>
      <point x="773.5600000000001" y="-26.48" type="curve" smooth="yes"/>
      <point x="910.1600000000001" y="-26.48"/>
      <point x="1085.576" y="83.888"/>
      <point x="1256.28" y="354.10400000000004" type="curve"/>
      <point x="1244.688" y="361.752" type="line"/>
      <point x="1123.7920000000001" y="229.616"/>
      <point x="1035.864" y="174.08"/>
      <point x="972.608" y="154.232" type="curve"/>
      <point x="1401.24" y="1490.48" type="line"/>
      <point x="1385.9279999999999" y="1490.48" type="line"/>
      <point x="1206.4160000000002" y="1432.408" type="line"/>
      <point x="1260.4160000000002" y="1424.408" type="line"/>
      <point x="1191.344" y="1472.648"/>
      <point x="1123.904" y="1490.48"/>
      <point x="996.6160000000001" y="1490.48" type="curve" smooth="yes"/>
      <point x="618.392" y="1490.48"/>
      <point x="353.512" y="1267.864"/>
      <point x="280.4" y="933.4" type="curve" smooth="yes"/>
      <point x="67.62400000000001" y="-38.232" type="line" smooth="yes"/>
      <point x="5.192" y="-321.312"/>
      <point x="-78.904" y="-403.744"/>
      <point x="-166.072" y="-403.744" type="curve" smooth="yes"/>
      <point x="-212.736" y="-403.744"/>
      <point x="-222.73600000000002" y="-380.672"/>
      <point x="-198.96" y="-282.40000000000003" type="curve" smooth="yes"/>
      <point x="-175.184" y="-184.128"/>
      <point x="-196.72" y="-141.632"/>
      <point x="-282.768" y="-141.632" type="curve" smooth="yes"/>
      <point x="-371.04" y="-141.632"/>
      <point x="-422.296" y="-206.88799999999998"/>
      <point x="-422.296" y="-285.62399999999997" type="curve" smooth="yes"/>
      <point x="-422.296" y="-390.08"/>
      <point x="-341.432" y="-465.0"/>
      <point x="-191.76" y="-465.0" type="curve" smooth="yes"/>
      <point x="56.816" y="-465.0"/>
      <point x="303.008" y="-254.61599999999999"/>
    </contour>
  </outline>
</glyph>
<glyph name="cent.lf" format="2">
  <advance width="1073.544"/>
  <outline>
    <contour>
      <point x="209.16" y="0.0" type="line"/>
      <point x="272.768" y="0.0" type="line"/>
      <point x="1170.768" y="1430.0" type="line"/>
      <point x="1106.16" y="1430.0" type="line"/>
    </contour>
    <contour>
      <point x="829.92" y="1192.8" type="curve" smooth="yes"/>
      <point x="885.104" y="1192.8"/>
      <point x="902.3439999999999" y="1165.968"/>
      <point x="874.1600000000001" y="1065.6560000000002" type="curve" smooth="yes"/>
      <point x="845.976" y="965.344"/>
      <point x="869.3280000000001" y="929.568"/>
      <point x="940.808" y="929.5680000000001" type="curve" smooth="yes"/>
      <point x="1038.136" y="929.568"/>
      <point x="1110.296" y="994.048"/>
      <point x="1110.296" y="1083.2640000000001" type="curve" smooth="yes"/>
      <point x="1110.296" y="1178.76"/>
      <point x="1040.984" y="1250.4799999999998"/>
      <point x="851.608" y="1250.4799999999998" type="curve" smooth="yes"/>
      <point x="453.90399999999994" y="1250.4799999999998"/>
      <point x="173.256" y="889.808"/>
      <point x="173.256" y="508.20799999999997" type="curve" smooth="yes"/>
      <point x="173.256" y="305.4"/>
      <point x="287.288" y="173.51999999999998"/>
      <point x="512.736" y="173.51999999999998" type="curve" smooth="yes"/>
      <point x="712.336" y="173.51999999999998"/>
      <point x="856.2959999999999" y="275.0"/>
      <point x="991.6640000000001" y="622.864" type="curve"/>
      <point x="977.424" y="623.568" type="line"/>
      <point x="866.9599999999999" y="430.896"/>
      <point x="764.5680000000001" y="369.912"/>
      <point x="645.552" y="369.912" type="curve" smooth="yes"/>
      <point x="537.2959999999999" y="369.912"/>
      <point x="490.64799999999997" y="429.744"/>
      <point x="490.64799999999997" y="564.6160000000001" type="curve" smooth="yes"/>
      <point x="490.64799999999997" y="906.96"/>
      <point x="666.592" y="1192.8"/>
    </contour>
  </outline>
</glyph>
<glyph name="dollar.lf.1" format="2">
  <advance width="1153.448"/>
  <outline>
    <contour>
      <point x="426.91999999999996" y="40.144" type="curve" smooth="yes"/>
      <point x="207.41600000000003" y="40.144"/>
      <point x="177.9382268041237" y="284.856"/>
      <point x="123.416" y="284.856" type="curve" smooth="yes"/>
      <point x="34.144000000000005" y="284.856"/>
      <point x="-16.816" y="234.43200000000002"/>
      <point x="-16.816" y="161.4" type="curve" smooth="yes"/>
      <point x="-16.816" y="70.352"/>
      <point x="81.824" y="-26.48"/>
      <point x="367.77599999999995" y="-26.48" type="curve" smooth="yes"/>
      <point x="814.1039999999999" y="-26.48"/>
      <point x="1058.5759999999998" y="209.776"/>
      <point x="1058.5759999999998" y="503.936" type="curve" smooth="yes"/>
      <point x="1058.5759999999998" y="877.736"/>
      <point x="509.704" y="890.672"/>
      <point x="509.704" y="1150.768" type="curve" smooth="yes"/>
      <point x="509.704" y="1286.5520000000001"/>
      <point x="596.9119999999999" y="1389.856"/>
      <point x="809.032" y="1389.856" type="curve" smooth="yes"/>
      <point x="1010.424" y="1389.856"/>
      <point x="1058.0240000000001" y="1163.288"/>
      <point x="1109.104" y="1163.288" type="curve" smooth="yes"/>
      <point x="1200.32" y="1163.288"/>
      <point x="1246.096" y="1206.584"/>
      <point x="1246.096" y="1276.376" type="curve" smooth="yes"/>
      <point x="1246.096" y="1363.536"/>
      <point x="1145.9759999999999" y="1456.48"/>
      <point x="876.288" y="1456.48" type="curve" smooth="yes"/>
      <point x="469.832" y="1456.48"/>
      <point x="250.096" y="1236.616"/>
      <point x="250.096" y="972.64" type="curve" smooth="yes"/>
      <point x="250.096" y="567.2959999999999"/>
      <point x="789.8960000000001" y="598.632"/>
      <point x="789.8960000000001" y="316.808" type="curve" smooth="yes"/>
      <point x="789.8960000000001" y="154.28"/>
      <point x="654.632" y="40.144"/>
    </contour>
    <contour>
      <point x="809.68" y="1412.6879999999999" type="line"/>
      <point x="878.568" y="1638.0" type="line"/>
      <point x="813.6640000000001" y="1638.0" type="line"/>
      <point x="744.776" y="1412.6879999999999" type="line"/>
    </contour>
    <contour>
      <point x="991.2719999999999" y="1412.6879999999999" type="line"/>
      <point x="1060.1599999999999" y="1638.0" type="line"/>
      <point x="994.256" y="1638.0" type="line"/>
      <point x="925.368" y="1412.6879999999999" type="line"/>
    </contour>
    <contour>
      <point x="316.25600000000003" y="12.776" type="line"/>
      <point x="248.66400000000002" y="-208.0" type="line"/>
      <point x="314.568" y="-208.0" type="line"/>
      <point x="382.15999999999997" y="12.776" type="line"/>
    </contour>
    <contour>
      <point x="497.84800000000007" y="12.776" type="line"/>
      <point x="430.256" y="-208.0" type="line"/>
      <point x="495.15999999999997" y="-208.0" type="line"/>
      <point x="562.752" y="12.776" type="line"/>
    </contour>
  </outline>
</glyph>
<glyph name="eight.lf" format="2">
  <advance width="1234.496"/>
  <outline>
    <contour>
      <point x="812.76" y="833.488" type="line"/>
      <point x="1124.24" y="864.736"/>
      <point x="1276.9759999999999" y="986.1279999999999"/>
      <point x="1276.9759999999999" y="1164.24" type="curve" smooth="yes"/>
      <point x="1276.9759999999999" y="1319.48"/>
      <point x="1141.144" y="1456.48"/>
      <point x="852.008" y="1456.48" type="curve" smooth="yes"/>
      <point x="520.688" y="1456.48"/>
      <point x="309.952" y="1270.408"/>
      <point x="309.952" y="1025.5600000000002" type="curve" smooth="yes"/>
      <point x="309.952" y="869.7520000000001"/>
      <point x="376.096" y="744.072"/>
      <point x="601.7760000000001" y="615.1999999999999" type="curve" smooth="yes"/>
      <point x="827.456" y="486.328"/>
      <point x="868.568" y="418.16"/>
      <point x="868.568" y="321.51199999999994" type="curve" smooth="yes"/>
      <point x="868.568" y="152.32000000000002"/>
      <point x="724.952" y="41.736000000000004"/>
      <point x="527.3199999999999" y="41.736000000000004" type="curve" smooth="yes"/>
      <point x="336.768" y="41.736000000000004"/>
      <point x="245.616" y="149.49599999999998"/>
      <point x="245.616" y="312.664" type="curve" smooth="yes"/>
      <point x="245.616" y="494.632"/>
      <point x="329.76800000000003" y="638.024"/>
      <point x="568.056" y="716.8000000000001" type="curve"/>
      <point x="532.1679999999999" y="741.208" type="line"/>
      <point x="165.05599999999998" y="668.1120000000001"/>
      <point x="31.744" y="504.76000000000005"/>
      <point x="31.744" y="312.944" type="curve" smooth="yes"/>
      <point x="31.744" y="129.184"/>
      <point x="185.33599999999998" y="-26.48"/>
      <point x="515.472" y="-26.48" type="curve" smooth="yes"/>
      <point x="866.128" y="-26.48"/>
      <point x="1123.008" y="187.48"/>
      <point x="1123.008" y="463.992" type="curve" smooth="yes"/>
      <point x="1123.008" y="625.856"/>
      <point x="1042.7359999999999" y="760.72"/>
      <point x="817.352" y="885.76" type="curve" smooth="yes"/>
      <point x="594.56" y="1008.856"/>
      <point x="546.856" y="1069.896"/>
      <point x="546.856" y="1165.8799999999999" type="curve" smooth="yes"/>
      <point x="546.856" y="1291.424"/>
      <point x="643.824" y="1393.152"/>
      <point x="828.6800000000001" y="1393.152" type="curve" smooth="yes"/>
      <point x="991.568" y="1393.152"/>
      <point x="1078.808" y="1303.448"/>
      <point x="1078.808" y="1181.28" type="curve" smooth="yes"/>
      <point x="1078.808" y="1036.808"/>
      <point x="986.4720000000001" y="917.712"/>
      <point x="790.48" y="855.1360000000001" type="curve"/>
    </contour>
  </outline>
</glyph>
<glyph name="florin.lf" format="2">
  <advance width="1241.536"/>
  <outline>
    <contour>
      <point x="197.376" y="687.984" type="line"/>
      <point x="1114.4640000000002" y="687.984" type="line"/>
      <point x="1116.576" y="757.5360000000001" type="line"/>
      <point x="199.488" y="757.5360000000001" type="line"/>
    </contour>
    <contour>
      <point x="122.064" y="-243.072" type="curve" smooth="yes"/>
      <point x="379.26399999999995" y="-243.072"/>
      <point x="688.688" y="-66.224"/>
      <point x="788.4159999999999" y="501.44" type="curve" smooth="yes"/>
      <point x="892.256" y="1091.792" type="line" smooth="yes"/>
      <point x="933.352" y="1323.0"/>
      <point x="1002.008" y="1395.152"/>
      <point x="1106.64" y="1395.152" type="curve" smooth="yes"/>
      <point x="1208.088" y="1395.152"/>
      <point x="1287.616" y="1209.1039999999998"/>
      <point x="1315.728" y="1209.1039999999998" type="curve" smooth="yes"/>
      <point x="1383.392" y="1209.1039999999998"/>
      <point x="1430.648" y="1250.1760000000002"/>
      <point x="1430.648" y="1310.376" type="curve" smooth="yes"/>
      <point x="1430.648" y="1396.888"/>
      <point x="1353.28" y="1456.48"/>
      <point x="1164.8400000000001" y="1456.48" type="curve" smooth="yes"/>
      <point x="827.528" y="1456.48"/>
      <point x="589.792" y="1245.624"/>
      <point x="533.416" y="939.608" type="curve" smooth="yes"/>
      <point x="393.136" y="154.832" type="line" smooth="yes"/>
      <point x="341.704" y="-120.984"/>
      <point x="255.936" y="-176.096"/>
      <point x="188.84" y="-176.096" type="curve" smooth="yes"/>
      <point x="80.432" y="-176.096"/>
      <point x="29.824000000000005" y="7.896000000000004"/>
      <point x="5.768000000000001" y="7.896000000000004" type="curve" smooth="yes"/>
      <point x="-47.48799999999999" y="7.896000000000004"/>
      <point x="-112.928" y="-25.583999999999996"/>
      <point x="-112.928" y="-108.85600000000001" type="curve" smooth="yes"/>
      <point x="-112.928" y="-193.464"/>
      <point x="-33.928" y="-243.072"/>
    </contour>
  </outline>
</glyph>
<glyph name="uni0304.case" format="2">
  <anchor x="281.0" y="1430.0" name="_UCtop"/>
  <anchor x="415.0" y="1870.0" name="UCtop"/>
  <outline>
    <contour>
      <point x="65.152" y="1660.2800000000002" type="line"/>
      <point x="637.0160000000001" y="1660.2800000000002" type="line"/>
      <point x="665.848" y="1754.72" type="line"/>
      <point x="93.98400000000001" y="1754.72" type="line"/>
    </contour>
  </outline>
</glyph>
<glyph name="uni0306.case" format="2">
  <anchor x="281.0" y="1430.0" name="_UCtop"/>
  <anchor x="415.0" y="1870.0" name="UCtop"/>
  <outline>
    <contour>
      <point x="356.12800000000004" y="1688.584" type="curve" smooth="yes"/>
      <point x="220.536" y="1688.584"/>
      <point x="159.056" y="1742.2160000000001"/>
      <point x="161.112" y="1870.0" type="curve"/>
      <point x="110.744" y="1870.0" type="line"/>
      <point x="97.744" y="1611.48"/>
      <point x="144.912" y="1534.0"/>
      <point x="312.704" y="1534.0" type="curve" smooth="yes"/>
      <point x="485.01599999999996" y="1534.0"/>
      <point x="580.088" y="1612.1840000000002"/>
      <point x="719.904" y="1870.0" type="curve"/>
      <point x="659.704" y="1870.0" type="line"/>
      <point x="585.96" y="1743.8639999999998"/>
      <point x="480.424" y="1688.584"/>
    </contour>
  </outline>
</glyph>
<glyph name="uni0306_gravecomb" format="2">
  <anchor x="157.0" y="1024.0" name="_top"/>
  <outline>
    <contour>
      <point x="249.22400000000002" y="1315.0" type="line"/>
      <point x="210.144" y="1598.0" type="line"/>
      <point x="-5.824000000000002" y="1598.0" type="line"/>
      <point x="-7.232000000000003" y="1584.7040000000002" type="line"/>
      <point x="212.15200000000002" y="1315.0" type="line"/>
    </contour>
    <contour>
      <point x="213.48000000000002" y="1220.9759999999999" type="curve" smooth="yes"/>
      <point x="84.056" y="1220.9759999999999"/>
      <point x="30.536" y="1248.552"/>
      <point x="20.352" y="1336.0" type="curve"/>
      <point x="-21.72" y="1336.0" type="line"/>
      <point x="-20.72" y="1134.1119999999999"/>
      <point x="32.632000000000005" y="1087.0"/>
      <point x="179.168" y="1087.0" type="curve" smooth="yes"/>
      <point x="320.424" y="1087.0"/>
      <point x="400.42400000000004" y="1132.352"/>
      <point x="525.72" y="1336.0" type="curve"/>
      <point x="477.05600000000004" y="1336.0" type="line"/>
      <point x="417.776" y="1254.032"/>
      <point x="343.256" y="1220.9759999999999"/>
    </contour>
  </outline>
</glyph>
<glyph name="uni0306_hookabovecomb.case" format="2">
  <anchor x="281.0" y="1430.0" name="_UCtop"/>
  <outline>
    <contour>
      <point x="337.48" y="1626.9759999999999" type="curve" smooth="yes"/>
      <point x="208.056" y="1626.9759999999999"/>
      <point x="154.536" y="1654.552"/>
      <point x="144.352" y="1742.0" type="curve"/>
      <point x="102.28" y="1742.0" type="line"/>
      <point x="103.28" y="1540.112"/>
      <point x="156.632" y="1493.0"/>
      <point x="303.168" y="1493.0" type="curve" smooth="yes"/>
      <point x="444.424" y="1493.0"/>
      <point x="524.424" y="1538.352"/>
      <point x="649.72" y="1742.0" type="curve"/>
      <point x="601.056" y="1742.0" type="line"/>
      <point x="541.776" y="1660.032"/>
      <point x="467.256" y="1626.9759999999999"/>
    </contour>
    <contour>
      <point x="338.688" y="1719.0" type="line"/>
      <point x="558.536" y="1742.096"/>
      <point x="618.664" y="1813.9840000000002"/>
      <point x="618.664" y="1904.4080000000001" type="curve" smooth="yes"/>
      <point x="618.664" y="1983.056"/>
      <point x="554.424" y="2040.352"/>
      <point x="353.224" y="2056.0" type="curve"/>
      <point x="311.728" y="1909.248" type="line"/>
      <point x="455.504" y="1901.248"/>
      <point x="492.376" y="1886.616"/>
      <point x="492.376" y="1849.04" type="curve" smooth="yes"/>
      <point x="492.376" y="1809.28"/>
      <point x="461.32" y="1779.704"/>
      <point x="337.28000000000003" y="1765.608" type="curve"/>
    </contour>
  </outline>
</glyph>
<glyph name="uni0308.case" format="2">
  <anchor x="281.0" y="1430.0" name="_UCtop"/>
  <anchor x="388.0" y="1782.0" name="UCtop"/>
  <outline>
    <contour>
      <point x="150.464" y="1581.024" type="curve" smooth="yes"/>
      <point x="243.03199999999998" y="1581.024"/>
      <point x="301.624" y="1652.872"/>
      <point x="301.624" y="1731.24" type="curve" smooth="yes"/>
      <point x="301.624" y="1788.1999999999998"/>
      <point x="261.256" y="1833.976"/>
      <point x="197.832" y="1833.976" type="curve" smooth="yes"/>
      <point x="105.61599999999999" y="1833.976"/>
      <point x="46.672" y="1762.128"/>
      <point x="46.672" y="1683.76" type="curve" smooth="yes"/>
      <point x="46.672" y="1626.8000000000002"/>
      <point x="87.03999999999999" y="1581.024"/>
    </contour>
    <contour>
      <point x="532.816" y="1581.024" type="curve" smooth="yes"/>
      <point x="625.384" y="1581.024"/>
      <point x="683.976" y="1652.872"/>
      <point x="683.976" y="1731.24" type="curve" smooth="yes"/>
      <point x="683.976" y="1788.1999999999998"/>
      <point x="643.6080000000001" y="1833.976"/>
      <point x="580.184" y="1833.976" type="curve" smooth="yes"/>
      <point x="487.968" y="1833.976"/>
      <point x="429.024" y="1762.128"/>
      <point x="429.024" y="1683.76" type="curve" smooth="yes"/>
      <point x="429.024" y="1626.8000000000002"/>
      <point x="469.392" y="1581.024"/>
    </contour>
  </outline>
</glyph>
<glyph name="uni0312.case" format="2">
  <anchor x="279.592" y="1430.0" name="_UCtop"/>
  <anchor x="413.592" y="1870.0" name="UCtop"/>
  <outline>
    <contour>
      <point x="494.16" y="1666.1999999999998" type="curve" smooth="yes"/>
      <point x="494.16" y="1685.664"/>
      <point x="386.68" y="1682.312"/>
      <point x="386.68" y="1745.312" type="curve" smooth="yes"/>
      <point x="386.68" y="1793.7920000000001"/>
      <point x="434.08799999999997" y="1834.464"/>
      <point x="553.8320000000001" y="1843.872" type="curve"/>
      <point x="566.424" y="1885.0" type="line"/>
      <point x="292.19199999999995" y="1866.296"/>
      <point x="223.928" y="1739.144"/>
      <point x="223.928" y="1647.44" type="curve" smooth="yes"/>
      <point x="223.928" y="1573.48"/>
      <point x="268.0" y="1533.0"/>
      <point x="338.71999999999997" y="1533.0" type="curve" smooth="yes"/>
      <point x="428.68" y="1533.0"/>
      <point x="494.16" y="1596.52"/>
    </contour>
  </outline>
</glyph>
<glyph name="uni20A6.1" format="2">
  <advance width="1329.6"/>
  <outline>
    <contour>
      <point x="1363.4959999999999" y="1372.872" type="line"/>
      <point x="1513.0" y="1406.76" type="line"/>
      <point x="1520.0" y="1430.0" type="line"/>
      <point x="1178.456" y="1430.0" type="line"/>
      <point x="1171.16" y="1406.76" type="line"/>
      <point x="1302.72" y="1372.224" type="line"/>
      <point x="1015.5279999999999" y="437.552" type="line"/>
      <point x="1043.472" y="437.552" type="line"/>
      <point x="861.96" y="1430.0" type="line"/>
      <point x="388.32" y="1430.0" type="line"/>
      <point x="381.024" y="1406.76" type="line"/>
      <point x="513.512" y="1353.8" type="line"/>
      <point x="119.528" y="57.128" type="line"/>
      <point x="-30.328000000000003" y="23.240000000000002" type="line"/>
      <point x="-36.976" y="0.0" type="line"/>
      <point x="304.56800000000004" y="0.0" type="line"/>
      <point x="311.86400000000003" y="23.240000000000002" type="line"/>
      <point x="179.952" y="57.776" type="line"/>
      <point x="581.768" y="1373.2240000000002" type="line"/>
      <point x="550.5840000000001" y="1356.856" type="line"/>
      <point x="793.8" y="-4.927999999999999" type="line"/>
      <point x="941.68" y="-4.927999999999999" type="line"/>
    </contour>
    <contour>
      <point x="1080.496" y="527.872" type="line"/>
      <point x="1248.336" y="527.872" type="line"/>
      <point x="1268.872" y="596.424" type="line"/>
      <point x="1101.032" y="596.424" type="line"/>
    </contour>
    <contour>
      <point x="316.584" y="596.424" type="line"/>
      <point x="111.024" y="596.424" type="line"/>
      <point x="89.488" y="527.872" type="line"/>
      <point x="296.048" y="527.872" type="line"/>
    </contour>
    <contour>
      <point x="1176.5520000000001" y="844.872" type="line"/>
      <point x="1345.336" y="844.872" type="line"/>
      <point x="1366.224" y="914.424" type="line"/>
      <point x="1198.088" y="914.424" type="line"/>
    </contour>
    <contour>
      <point x="414.288" y="914.424" type="line"/>
      <point x="208.024" y="914.424" type="line"/>
      <point x="186.488" y="844.872" type="line"/>
      <point x="392.752" y="844.872" type="line"/>
    </contour>
  </outline>
</glyph>
<glyph name="uni20A6.lf.1" format="2">
  <advance width="1327.984"/>
  <outline>
    <contour>
      <point x="1362.864" y="1372.872" type="line"/>
      <point x="1512.368" y="1406.76" type="line"/>
      <point x="1519.368" y="1430.0" type="line"/>
      <point x="1177.824" y="1430.0" type="line"/>
      <point x="1170.528" y="1406.76" type="line"/>
      <point x="1302.088" y="1372.224" type="line"/>
      <point x="1014.8960000000001" y="437.552" type="line"/>
      <point x="1042.8400000000001" y="437.552" type="line"/>
      <point x="861.328" y="1430.0" type="line"/>
      <point x="387.688" y="1430.0" type="line"/>
      <point x="380.392" y="1406.76" type="line"/>
      <point x="512.88" y="1353.8" type="line"/>
      <point x="118.89600000000002" y="57.128" type="line"/>
      <point x="-30.96" y="23.240000000000002" type="line"/>
      <point x="-37.608000000000004" y="0.0" type="line"/>
      <point x="303.936" y="0.0" type="line"/>
      <point x="311.23199999999997" y="23.240000000000002" type="line"/>
      <point x="179.32" y="57.776" type="line"/>
      <point x="581.1360000000001" y="1373.2240000000002" type="line"/>
      <point x="549.952" y="1356.856" type="line"/>
      <point x="793.168" y="-4.927999999999999" type="line"/>
      <point x="941.048" y="-4.927999999999999" type="line"/>
    </contour>
    <contour>
      <point x="1076.568" y="527.872" type="line"/>
      <point x="1247.704" y="527.872" type="line"/>
      <point x="1268.24" y="596.424" type="line"/>
      <point x="1097.7520000000002" y="596.424" type="line"/>
    </contour>
    <contour>
      <point x="315.59999999999997" y="596.424" type="line"/>
      <point x="110.39200000000001" y="596.424" type="line"/>
      <point x="88.856" y="527.872" type="line"/>
      <point x="296.06399999999996" y="527.872" type="line"/>
    </contour>
    <contour>
      <point x="1177.16" y="844.872" type="line"/>
      <point x="1344.704" y="844.872" type="line"/>
      <point x="1365.592" y="914.424" type="line"/>
      <point x="1198.9920000000002" y="914.424" type="line"/>
    </contour>
    <contour>
      <point x="407.656" y="914.424" type="line"/>
      <point x="207.392" y="914.424" type="line"/>
      <point x="185.856" y="844.872" type="line"/>
      <point x="387.12" y="844.872" type="line"/>
    </contour>
  </outline>
</glyph>
<glyph name="uni20A9.lf.1" format="2">
  <advance width="1480.752"/>
  <outline>
    <contour>
      <point x="896.336" y="974.8879999999999" type="line"/>
      <point x="869.248" y="974.8879999999999" type="line"/>
      <point x="802.48" y="-4.927999999999999" type="line"/>
      <point x="999.944" y="-4.927999999999999" type="line"/>
      <point x="1558.488" y="1373.576" type="line"/>
      <point x="1679.8960000000002" y="1406.76" type="line"/>
      <point x="1687.248" y="1430.0" type="line"/>
      <point x="1387.528" y="1430.0" type="line"/>
      <point x="1379.528" y="1406.76" type="line"/>
      <point x="1499.1200000000001" y="1374.336" type="line"/>
      <point x="1126.72" y="444.152" type="line"/>
      <point x="1156.4959999999999" y="444.15200000000004" type="line"/>
      <point x="1179.96" y="1434.9279999999999" type="line"/>
      <point x="1093.304" y="1434.9279999999999" type="line"/>
      <point x="457.064" y="288.55199999999996" type="line"/>
      <point x="551.4399999999999" y="380.56800000000004" type="line"/>
      <point x="751.048" y="1373.928" type="line"/>
      <point x="874.216" y="1406.76" type="line"/>
      <point x="881.864" y="1430.0" type="line"/>
      <point x="347.704" y="1430.0" type="line"/>
      <point x="340.056" y="1406.76" type="line"/>
      <point x="440.912" y="1372.632" type="line"/>
      <point x="178.952" y="-4.927999999999999" type="line"/>
      <point x="352.144" y="-4.927999999999999" type="line"/>
    </contour>
    <contour>
      <point x="1194.4479999999999" y="527.872" type="line"/>
      <point x="1392.824" y="527.872" type="line"/>
      <point x="1414.008" y="596.424" type="line"/>
      <point x="1221.632" y="596.424" type="line"/>
    </contour>
    <contour>
      <point x="448.6" y="596.424" type="line"/>
      <point x="112.816" y="596.424" type="line"/>
      <point x="91.632" y="527.872" type="line"/>
      <point x="439.656" y="527.872" type="line"/>
    </contour>
    <contour>
      <point x="1319.912" y="844.872" type="line"/>
      <point x="1489.824" y="844.872" type="line"/>
      <point x="1511.3600000000001" y="914.424" type="line"/>
      <point x="1347.7440000000001" y="914.424" type="line"/>
    </contour>
    <contour>
      <point x="490.59999999999997" y="914.424" type="line"/>
      <point x="209.816" y="914.424" type="line"/>
      <point x="188.632" y="844.872" type="line"/>
      <point x="480.656" y="844.872" type="line"/>
    </contour>
  </outline>
</glyph>
<glyph name="uni20AD.lf" format="2">
  <advance width="1558.5439999999999"/>
  <outline>
    <contour>
      <point x="1062.976" y="888.192" type="line"/>
      <point x="1021.776" y="810.568" type="line"/>
      <point x="1503.248" y="1353.3200000000002" type="line"/>
      <point x="1671.1760000000002" y="1398.984" type="line"/>
      <point x="1680.12" y="1430.0" type="line"/>
      <point x="1283.528" y="1430.0" type="line"/>
      <point x="1274.936" y="1398.984" type="line"/>
      <point x="1421.976" y="1353.968" type="line"/>
      <point x="1011.44" y="881.264" type="line"/>
      <point x="728.048" y="760.736" type="line"/>
      <point x="882.08" y="0.0" type="line"/>
      <point x="1356.784" y="0.0" type="line"/>
      <point x="1365.08" y="25.183999999999997" type="line"/>
      <point x="1231.112" y="78.42399999999999" type="line"/>
    </contour>
    <contour>
      <point x="1361.712" y="782.976" type="line"/>
      <point x="181.352" y="782.976" type="line"/>
      <point x="158.52" y="709.832" type="line"/>
      <point x="1339.528" y="709.832" type="line"/>
    </contour>
    <contour>
      <point x="895.448" y="1351.856" type="line"/>
      <point x="1045.584" y="1398.984" type="line"/>
      <point x="1054.8239999999998" y="1430.0" type="line"/>
      <point x="414.424" y="1430.0" type="line"/>
      <point x="407.128" y="1406.76" type="line"/>
      <point x="524.768" y="1359.6319999999998" type="line"/>
      <point x="132.24800000000002" y="71.01599999999999" type="line"/>
      <point x="-11.408000000000001" y="23.888" type="line"/>
      <point x="-18.704" y="0.0" type="line"/>
      <point x="605.496" y="0.0" type="line"/>
      <point x="613.088" y="23.888" type="line"/>
      <point x="504.22400000000005" y="71.01599999999999" type="line"/>
    </contour>
  </outline>
</glyph>
<glyph name="uni20B1.lf.1" format="2">
  <advance width="1558.744"/>
  <outline>
    <contour>
      <point x="571.152" y="1353.8" type="line"/>
      <point x="182.52" y="75.55199999999999" type="line"/>
      <point x="-25.288" y="23.240000000000002" type="line"/>
      <point x="-31.936" y="0.0" type="line"/>
      <point x="716.3280000000001" y="0.0" type="line"/>
      <point x="723.2719999999999" y="23.240000000000002" type="line"/>
      <point x="539.24" y="76.19999999999999" type="line"/>
      <point x="952.408" y="1430.0" type="line"/>
      <point x="394.064" y="1430.0" type="line"/>
      <point x="386.768" y="1406.76" type="line"/>
    </contour>
    <contour>
      <point x="810.3280000000001" y="620.904" type="curve" smooth="yes"/>
      <point x="618.3040000000001" y="620.904" type="line"/>
      <point x="472.36" y="554.52" type="line"/>
      <point x="866.784" y="554.52" type="line" smooth="yes"/>
      <point x="1274.6719999999998" y="554.52"/>
      <point x="1471.464" y="829.5999999999999"/>
      <point x="1471.464" y="1118.28" type="curve" smooth="yes"/>
      <point x="1471.464" y="1295.816"/>
      <point x="1370.464" y="1430.0"/>
      <point x="1072.984" y="1430.0" type="curve" smooth="yes"/>
      <point x="741.7679999999999" y="1430.0" type="line"/>
      <point x="843.64" y="1363.616" type="line"/>
      <point x="987.768" y="1363.616" type="line" smooth="yes"/>
      <point x="1114.048" y="1363.616"/>
      <point x="1158.736" y="1302.776"/>
      <point x="1158.736" y="1187.864" type="curve" smooth="yes"/>
      <point x="1158.736" y="900.456"/>
      <point x="1017.7520000000001" y="620.904"/>
    </contour>
    <contour>
      <point x="684.112" y="1214.424" type="line"/>
      <point x="319.0" y="1214.424" type="line"/>
      <point x="297.816" y="1144.8719999999998" type="line"/>
      <point x="665.872" y="1144.8719999999998" type="line"/>
    </contour>
    <contour>
      <point x="598.9440000000001" y="896.4240000000001" type="line"/>
      <point x="221.352" y="896.4240000000001" type="line"/>
      <point x="200.816" y="827.8720000000001" type="line"/>
      <point x="580.352" y="827.8720000000001" type="line"/>
    </contour>
    <contour>
      <point x="1267.1680000000001" y="1144.8719999999998" type="line"/>
      <point x="1663.1119999999999" y="1144.8719999999998" type="line"/>
      <point x="1684.648" y="1214.424" type="line"/>
      <point x="1267.1680000000001" y="1214.424" type="line"/>
    </contour>
    <contour>
      <point x="1267.1680000000001" y="827.8720000000001" type="line"/>
      <point x="1566.112" y="827.8720000000001" type="line"/>
      <point x="1587.648" y="896.4240000000001" type="line"/>
      <point x="1267.1680000000001" y="896.4240000000001" type="line"/>
    </contour>
  </outline>
</glyph>
